<svg xmlns="http://www.w3.org/2000/svg" version="1.1" width="965" height="654" preserveAspectRatio="none" viewBox="0 0 965 654" id="SVG" style="stroke-width: 2px; font-size: 11px; font-family: sans-serif; shape-rendering: crispEdges;"><rect x="0" y="0" width="965" height="654" fill="white"></rect><line x1="168.36493709771372" y1="72.07936019897457" x2="-65.02402326527283" y2="72.07936019897457" vector-effect="non-scaling-stroke" stroke="black" stroke-opacity="0.4" stroke-width="6" class="errorBar"></line><line x1="276.17158185232995" y1="111.45872039794921" x2="85.70438431237683" y2="111.45872039794921" vector-effect="non-scaling-stroke" stroke="black" stroke-opacity="0.4" stroke-width="6" class="errorBar"></line><line x1="402.3298428225869" y1="171.82369079589841" x2="237.61244131870083" y2="171.82369079589841" vector-effect="non-scaling-stroke" stroke="black" stroke-opacity="0.4" stroke-width="6" class="errorBar"></line><line x1="493.2547407519806" y1="246.5692565917969" x2="354.7684198446638" y2="246.5692565917969" vector-effect="non-scaling-stroke" stroke="black" stroke-opacity="0.4" stroke-width="6" class="errorBar"></line><line x1="688.1564857022018" y1="314.8213256835937" x2="615.7625302290246" y2="314.8213256835937" vector-effect="non-scaling-stroke" stroke="black" stroke-opacity="0.4" stroke-width="6" class="errorBar"></line><line x1="699.5087260123897" y1="388.48015136718755" x2="629.2365577691885" y2="388.48015136718755" vector-effect="non-scaling-stroke" stroke="black" stroke-opacity="0.4" stroke-width="6" class="errorBar"></line><line x1="798.4496275216865" y1="487.80161132812503" x2="773.7009081232482" y2="487.80161132812503" vector-effect="non-scaling-stroke" stroke="black" stroke-opacity="0.4" stroke-width="6" class="errorBar"></line><line x1="804.9955389931963" y1="518.31416015625" x2="786.4838214637664" y2="518.31416015625" vector-effect="non-scaling-stroke" stroke="black" stroke-opacity="0.4" stroke-width="6" class="errorBar"></line><line x1="811.0922692214671" y1="537.9533203125001" x2="792.31768379951" y2="537.9533203125001" vector-effect="non-scaling-stroke" stroke="black" stroke-opacity="0.4" stroke-width="6" class="errorBar"></line><line x1="823.9136868767152" y1="558.8378906250001" x2="805.0076408735474" y2="558.8378906250001" vector-effect="non-scaling-stroke" stroke="black" stroke-opacity="0.4" stroke-width="6" class="errorBar"></line><line x1="829.0264623644144" y1="576.0820312500001" x2="810.6650693242319" y2="576.0820312500001" vector-effect="non-scaling-stroke" stroke="black" stroke-opacity="0.4" stroke-width="6" class="errorBar"></line><line x1="832.5822979650253" y1="592.1765625" x2="817.3129904173429" y2="592.1765625" vector-effect="non-scaling-stroke" stroke="black" stroke-opacity="0.4" stroke-width="6" class="errorBar"></line><line x1="834.0315556064604" y1="605.9718750000001" x2="821.8200301519187" y2="605.9718750000001" vector-effect="non-scaling-stroke" stroke="black" stroke-opacity="0.4" stroke-width="6" class="errorBar"></line><line x1="834.0576952290564" y1="615.16875" x2="825.0438043103027" y2="615.16875" vector-effect="non-scaling-stroke" stroke="black" stroke-opacity="0.4" stroke-width="6" class="errorBar"></line><line x1="834.0601689159331" y1="621.3000000000001" x2="834.0601491096882" y2="621.3000000000001" vector-effect="non-scaling-stroke" stroke="black" stroke-opacity="0.4" stroke-width="6" class="errorBar"></line><line x1="845.3875434723675" y1="609.0375" x2="845.3875237984851" y2="609.0375" vector-effect="non-scaling-stroke" stroke="black" stroke-opacity="0.4" stroke-width="6" class="errorBar"></line><line x1="848.7857574023786" y1="596.7750000000001" x2="848.7857373314088" y2="596.7750000000001" vector-effect="non-scaling-stroke" stroke="black" stroke-opacity="0.4" stroke-width="6" class="errorBar"></line><line x1="838.2952470503446" y1="578.3812500000001" x2="826.1959847816295" y2="578.3812500000001" vector-effect="non-scaling-stroke" stroke="black" stroke-opacity="0.4" stroke-width="6" class="errorBar"></line><line x1="838.5911173450907" y1="584.5125" x2="838.5910977674719" y2="584.5125" vector-effect="non-scaling-stroke" stroke="black" stroke-opacity="0.4" stroke-width="6" class="errorBar"></line><line x1="857.8476584481621" y1="572.25" x2="857.8476387381809" y2="572.25" vector-effect="non-scaling-stroke" stroke="black" stroke-opacity="0.4" stroke-width="6" class="errorBar"></line><line x1="845.3875442815837" y1="559.9875000000001" x2="845.3875243038692" y2="559.9875000000001" vector-effect="non-scaling-stroke" stroke="black" stroke-opacity="0.4" stroke-width="6" class="errorBar"></line><line x1="827.7816490664364" y1="541.59375" x2="806.1481172800511" y2="541.59375" vector-effect="non-scaling-stroke" stroke="black" stroke-opacity="0.4" stroke-width="6" class="errorBar"></line><line x1="855.5821798475711" y1="547.725" x2="855.5821597284694" y2="547.725" vector-effect="non-scaling-stroke" stroke="black" stroke-opacity="0.4" stroke-width="6" class="errorBar"></line><line x1="847.6530182344455" y1="535.4625" x2="847.6529982116075" y2="535.4625" vector-effect="non-scaling-stroke" stroke="black" stroke-opacity="0.4" stroke-width="6" class="errorBar"></line><line x1="830.6586298832073" y1="517.06875" x2="823.2552511039925" y2="517.06875" vector-effect="non-scaling-stroke" stroke="black" stroke-opacity="0.4" stroke-width="6" class="errorBar"></line><line x1="871.4405087293111" y1="523.2" x2="871.4404883454843" y2="523.2" vector-effect="non-scaling-stroke" stroke="black" stroke-opacity="0.4" stroke-width="6" class="errorBar"></line><line x1="830.6619555996026" y1="510.9375" x2="830.6619357692919" y2="510.9375" vector-effect="non-scaling-stroke" stroke="black" stroke-opacity="0.4" stroke-width="6" class="errorBar"></line><line x1="808.0072046817907" y1="498.675" x2="808.0071851402707" y2="498.675" vector-effect="non-scaling-stroke" stroke="black" stroke-opacity="0.4" stroke-width="6" class="errorBar"></line><line x1="807.3209589678415" y1="457.2890625" x2="782.1752215375656" y2="457.2890625" vector-effect="non-scaling-stroke" stroke="black" stroke-opacity="0.4" stroke-width="6" class="errorBar"></line><line x1="837.590551831316" y1="471.084375" x2="817.3181906756907" y2="471.084375" vector-effect="non-scaling-stroke" stroke="black" stroke-opacity="0.4" stroke-width="6" class="errorBar"></line><line x1="841.293890578145" y1="480.28125000000006" x2="825.5707627218583" y2="480.28125000000006" vector-effect="non-scaling-stroke" stroke="black" stroke-opacity="0.4" stroke-width="6" class="errorBar"></line><line x1="887.2988337123735" y1="486.4125" x2="887.2988126306353" y2="486.4125" vector-effect="non-scaling-stroke" stroke="black" stroke-opacity="0.4" stroke-width="6" class="errorBar"></line><line x1="844.2548053031697" y1="474.15000000000003" x2="844.2547853765952" y2="474.15000000000003" vector-effect="non-scaling-stroke" stroke="black" stroke-opacity="0.4" stroke-width="6" class="errorBar"></line><line x1="838.5911175977826" y1="461.88750000000005" x2="838.5910976952741" y2="461.88750000000005" vector-effect="non-scaling-stroke" stroke="black" stroke-opacity="0.4" stroke-width="6" class="errorBar"></line><line x1="812.5061794903327" y1="443.49375" x2="799.1307086429682" y2="443.49375" vector-effect="non-scaling-stroke" stroke="black" stroke-opacity="0.4" stroke-width="6" class="errorBar"></line><line x1="830.6619555153719" y1="449.62499999999994" x2="830.6619358655555" y2="449.62499999999994" vector-effect="non-scaling-stroke" stroke="black" stroke-opacity="0.4" stroke-width="6" class="errorBar"></line><line x1="813.6708923992107" y1="437.3625" x2="813.6708727734601" y2="437.3625" vector-effect="non-scaling-stroke" stroke="black" stroke-opacity="0.4" stroke-width="6" class="errorBar"></line><line x1="740.0949591324871" y1="289.15869140625006" x2="674.7811791287471" y2="289.15869140625006" vector-effect="non-scaling-stroke" stroke="black" stroke-opacity="0.4" stroke-width="6" class="errorBar"></line><line x1="827.5730073272487" y1="318.76113281249997" x2="796.942833869952" y2="318.76113281249997" vector-effect="non-scaling-stroke" stroke="black" stroke-opacity="0.4" stroke-width="6" class="errorBar"></line><line x1="833.3187028377226" y1="353.441015625" x2="814.1711706256903" y2="353.441015625" vector-effect="non-scaling-stroke" stroke="black" stroke-opacity="0.4" stroke-width="6" class="errorBar"></line><line x1="834.9112045126161" y1="384.48046875" x2="819.1922888525954" y2="384.48046875" vector-effect="non-scaling-stroke" stroke="black" stroke-opacity="0.4" stroke-width="6" class="errorBar"></line><line x1="837.1115234554378" y1="399.0421875" x2="822.5789704581422" y2="399.0421875" vector-effect="non-scaling-stroke" stroke="black" stroke-opacity="0.4" stroke-width="6" class="errorBar"></line><line x1="848.451565308773" y1="409.771875" x2="824.487492899429" y2="409.771875" vector-effect="non-scaling-stroke" stroke="black" stroke-opacity="0.4" stroke-width="6" class="errorBar"></line><line x1="858.5840671714053" y1="418.96875" x2="831.9122570323577" y2="418.96875" vector-effect="non-scaling-stroke" stroke="black" stroke-opacity="0.4" stroke-width="6" class="errorBar"></line><line x1="879.3696639168382" y1="425.1" x2="879.3696566008012" y2="425.1" vector-effect="non-scaling-stroke" stroke="black" stroke-opacity="0.4" stroke-width="6" class="errorBar"></line><line x1="865.7768139244802" y1="412.8375" x2="865.7768074748161" y2="412.8375" vector-effect="non-scaling-stroke" stroke="black" stroke-opacity="0.4" stroke-width="6" class="errorBar"></line><line x1="877.1041903941546" y1="400.575" x2="877.1041825967993" y2="400.575" vector-effect="non-scaling-stroke" stroke="black" stroke-opacity="0.4" stroke-width="6" class="errorBar"></line><line x1="837.4583753975448" y1="388.31250000000006" x2="837.4583692366716" y2="388.31250000000006" vector-effect="non-scaling-stroke" stroke="black" stroke-opacity="0.4" stroke-width="6" class="errorBar"></line><line x1="836.3144004332717" y1="369.91875" x2="823.0277353490851" y2="369.91875" vector-effect="non-scaling-stroke" stroke="black" stroke-opacity="0.4" stroke-width="6" class="errorBar"></line><line x1="837.4583753012812" y1="376.04999999999995" x2="837.4583692848034" y2="376.04999999999995" vector-effect="non-scaling-stroke" stroke="black" stroke-opacity="0.4" stroke-width="6" class="errorBar"></line><line x1="870.3077632801753" y1="363.7875" x2="870.3077559641383" y2="363.7875" vector-effect="non-scaling-stroke" stroke="black" stroke-opacity="0.4" stroke-width="6" class="errorBar"></line><line x1="840.9410096199075" y1="322.4015625" x2="827.8099501929095" y2="322.4015625" vector-effect="non-scaling-stroke" stroke="black" stroke-opacity="0.4" stroke-width="6" class="errorBar"></line><line x1="851.4106258997381" y1="336.196875" x2="831.967595488045" y2="336.196875" vector-effect="non-scaling-stroke" stroke="black" stroke-opacity="0.4" stroke-width="6" class="errorBar"></line><line x1="862.145302392372" y1="345.39375" x2="836.3412716114352" y2="345.39375" vector-effect="non-scaling-stroke" stroke="black" stroke-opacity="0.4" stroke-width="6" class="errorBar"></line><line x1="872.5732367065955" y1="351.52500000000003" x2="872.5732299681403" y2="351.52500000000003" vector-effect="non-scaling-stroke" stroke="black" stroke-opacity="0.4" stroke-width="6" class="errorBar"></line><line x1="903.1571544357696" y1="339.26249999999993" x2="903.1571452185257" y2="339.26249999999993" vector-effect="non-scaling-stroke" stroke="black" stroke-opacity="0.4" stroke-width="6" class="errorBar"></line><line x1="853.3166992013776" y1="327" x2="853.3166932330316" y2="327" vector-effect="non-scaling-stroke" stroke="black" stroke-opacity="0.4" stroke-width="6" class="errorBar"></line><line x1="841.9890228704503" y1="308.60625" x2="835.613498627556" y2="308.60625" vector-effect="non-scaling-stroke" stroke="black" stroke-opacity="0.4" stroke-width="6" class="errorBar"></line><line x1="841.9893235980761" y1="314.73749999999995" x2="841.9893178222575" y2="314.73749999999995" vector-effect="non-scaling-stroke" stroke="black" stroke-opacity="0.4" stroke-width="6" class="errorBar"></line><line x1="867.3252486297727" y1="284.08124999999995" x2="832.3006247649552" y2="284.08124999999995" vector-effect="non-scaling-stroke" stroke="black" stroke-opacity="0.4" stroke-width="6" class="errorBar"></line><line x1="887.2988263963365" y1="290.2125" x2="887.2988184786518" y2="290.2125" vector-effect="non-scaling-stroke" stroke="black" stroke-opacity="0.4" stroke-width="6" class="errorBar"></line><line x1="873.7059765965057" y1="277.95" x2="873.705968943546" y2="277.95" vector-effect="non-scaling-stroke" stroke="black" stroke-opacity="0.4" stroke-width="6" class="errorBar"></line><line x1="831.9519821024644" y1="259.55625000000003" x2="771.0260437543477" y2="259.55625000000003" vector-effect="non-scaling-stroke" stroke="black" stroke-opacity="0.4" stroke-width="6" class="errorBar"></line><line x1="877.1041947260185" y1="265.68750000000006" x2="877.1041769172442" y2="265.68750000000006" vector-effect="non-scaling-stroke" stroke="black" stroke-opacity="0.4" stroke-width="6" class="errorBar"></line><line x1="874.8387208182801" y1="253.425" x2="874.8387039721423" y2="253.425" vector-effect="non-scaling-stroke" stroke="black" stroke-opacity="0.4" stroke-width="6" class="errorBar"></line><line x1="821.6000540965669" y1="241.16249999999997" x2="821.6000341699923" y2="241.16249999999997" vector-effect="non-scaling-stroke" stroke="black" stroke-opacity="0.4" stroke-width="6" class="errorBar"></line><line x1="681.8272550671744" y1="178.3171875" x2="579.0883203239692" y2="178.3171875" vector-effect="non-scaling-stroke" stroke="black" stroke-opacity="0.4" stroke-width="6" class="errorBar"></line><line x1="827.9521045700423" y1="202.84218750000002" x2="784.6531214166596" y2="202.84218750000002" vector-effect="non-scaling-stroke" stroke="black" stroke-opacity="0.4" stroke-width="6" class="errorBar"></line><line x1="832.0371156001262" y1="213.57187500000003" x2="794.7327513147737" y2="213.57187500000003" vector-effect="non-scaling-stroke" stroke="black" stroke-opacity="0.4" stroke-width="6" class="errorBar"></line><line x1="853.4486768025909" y1="222.76875000000007" x2="816.4467999388188" y2="222.76875000000007" vector-effect="non-scaling-stroke" stroke="black" stroke-opacity="0.4" stroke-width="6" class="errorBar"></line><line x1="892.9625306590705" y1="228.90000000000003" x2="892.9624888806487" y2="228.90000000000003" vector-effect="non-scaling-stroke" stroke="black" stroke-opacity="0.4" stroke-width="6" class="errorBar"></line><line x1="864.6440929022442" y1="216.6375" x2="864.644052591843" y2="216.6375" vector-effect="non-scaling-stroke" stroke="black" stroke-opacity="0.4" stroke-width="6" class="errorBar"></line><line x1="843.1220808154425" y1="204.375" x2="843.1220407697664" y2="204.375" vector-effect="non-scaling-stroke" stroke="black" stroke-opacity="0.4" stroke-width="6" class="errorBar"></line><line x1="848.7857677507204" y1="192.1125" x2="848.7857276087806" y2="192.1125" vector-effect="non-scaling-stroke" stroke="black" stroke-opacity="0.4" stroke-width="6" class="errorBar"></line><line x1="785.7278962251405" y1="153.79218749999998" x2="743.3621448253817" y2="153.79218749999998" vector-effect="non-scaling-stroke" stroke="black" stroke-opacity="0.4" stroke-width="6" class="errorBar"></line><line x1="797.8041730458403" y1="164.52187499999997" x2="766.9310706644037" y2="164.52187499999997" vector-effect="non-scaling-stroke" stroke="black" stroke-opacity="0.4" stroke-width="6" class="errorBar"></line><line x1="816.1189924833129" y1="173.71874999999994" x2="775.2737291051129" y2="173.71874999999994" vector-effect="non-scaling-stroke" stroke="black" stroke-opacity="0.4" stroke-width="6" class="errorBar"></line><line x1="861.2458791527274" y1="179.85000000000002" x2="861.2458401178194" y2="179.85000000000002" vector-effect="non-scaling-stroke" stroke="black" stroke-opacity="0.4" stroke-width="6" class="errorBar"></line><line x1="853.3167148442199" y1="167.58749999999998" x2="853.3166756167847" y2="167.58749999999998" vector-effect="non-scaling-stroke" stroke="black" stroke-opacity="0.4" stroke-width="6" class="errorBar"></line><line x1="805.7417408035208" y1="155.32500000000005" x2="805.7417023281453" y2="155.32500000000005" vector-effect="non-scaling-stroke" stroke="black" stroke-opacity="0.4" stroke-width="6" class="errorBar"></line><line x1="847.6530281977329" y1="143.0625" x2="847.652989692275" y2="143.0625" vector-effect="non-scaling-stroke" stroke="black" stroke-opacity="0.4" stroke-width="6" class="errorBar"></line><line x1="804.5651611803592" y1="97.078125" x2="755.982536302766" y2="97.078125" vector-effect="non-scaling-stroke" stroke="black" stroke-opacity="0.4" stroke-width="6" class="errorBar"></line><line x1="837.074760682402" y1="115.47187500000001" x2="810.1801828001925" y2="115.47187500000001" vector-effect="non-scaling-stroke" stroke="black" stroke-opacity="0.4" stroke-width="6" class="errorBar"></line><line x1="850.67586610053" y1="124.66875" x2="817.354156818935" y2="124.66875" vector-effect="non-scaling-stroke" stroke="black" stroke-opacity="0.4" stroke-width="6" class="errorBar"></line><line x1="874.838741707491" y1="130.79999999999998" x2="874.8386845268861" y2="130.79999999999998" vector-effect="non-scaling-stroke" stroke="black" stroke-opacity="0.4" stroke-width="6" class="errorBar"></line><line x1="866.9095734521741" y1="118.53750000000002" x2="866.9095165122283" y2="118.53750000000002" vector-effect="non-scaling-stroke" stroke="black" stroke-opacity="0.4" stroke-width="6" class="errorBar"></line><line x1="841.9893491801397" y1="106.275" x2="841.9892926011826" y2="106.275" vector-effect="non-scaling-stroke" stroke="black" stroke-opacity="0.4" stroke-width="6" class="errorBar"></line><line x1="842.5386988704136" y1="78.684375" x2="812.1220134251653" y2="78.684375" vector-effect="non-scaling-stroke" stroke="black" stroke-opacity="0.4" stroke-width="6" class="errorBar"></line><line x1="870.5267105118083" y1="87.88125000000001" x2="822.9231141188704" y2="87.88125000000001" vector-effect="non-scaling-stroke" stroke="black" stroke-opacity="0.4" stroke-width="6" class="errorBar"></line><line x1="894.0952767579859" y1="94.01249999999999" x2="894.0952193367218" y2="94.01249999999999" vector-effect="non-scaling-stroke" stroke="black" stroke-opacity="0.4" stroke-width="6" class="errorBar"></line><line x1="900.8917012247149" y1="81.75000000000003" x2="900.8916444291646" y2="81.75000000000003" vector-effect="non-scaling-stroke" stroke="black" stroke-opacity="0.4" stroke-width="6" class="errorBar"></line><line x1="847.65303710212" y1="69.48750000000001" x2="847.6529808841516" y2="69.48750000000001" vector-effect="non-scaling-stroke" stroke="black" stroke-opacity="0.4" stroke-width="6" class="errorBar"></line><line x1="796.4019821657668" y1="51.09375" x2="742.3350313747294" y2="51.09375" vector-effect="non-scaling-stroke" stroke="black" stroke-opacity="0.4" stroke-width="6" class="errorBar"></line><line x1="837.4584020144425" y1="57.22499999999998" x2="837.458339587469" y2="57.22499999999998" vector-effect="non-scaling-stroke" stroke="black" stroke-opacity="0.4" stroke-width="6" class="errorBar"></line><line x1="808.0072236938604" y1="44.96250000000003" x2="808.0071620369961" y2="44.96250000000003" vector-effect="non-scaling-stroke" stroke="black" stroke-opacity="0.4" stroke-width="6" class="errorBar"></line><line x1="803.4762814135433" y1="32.7" x2="803.4762116705327" y2="32.7" vector-effect="non-scaling-stroke" stroke="black" stroke-opacity="0.4" stroke-width="6" class="errorBar"></line><path d="M 56.849009900990204 72.07936019897457 H 48.25 V 72.07936019897457" fill="none" stroke-opacity="1" class="treeEdge trait_V29ybGQ=" vector-effect="non-scaling-stroke" id="node#0" stroke="green"></path><path d="M 181.5490287579886 111.45872039794921 H 56.849009900990204 V 72.07936019897457" fill="none" stroke-opacity="1" class="treeEdge trait_V29ybGQ=" vector-effect="non-scaling-stroke" id="node#1" stroke="green"></path><path d="M 329.66682246336165 171.82369079589841 H 181.5490287579886 V 111.45872039794921" fill="none" stroke-opacity="1" class="treeEdge trait_V29ybGQ=" vector-effect="non-scaling-stroke" id="node#2" stroke="green"></path><path d="M 416.1259849492829 246.5692565917969 H 329.66682246336165 V 171.82369079589841" fill="none" stroke-opacity="1" class="treeEdge trait_V29ybGQ=" vector-effect="non-scaling-stroke" id="node#3" stroke="green"></path><path d="M 653.8388209451016 314.8213256835937 H 416.1259849492829 V 246.5692565917969" fill="none" stroke-opacity="1" class="treeEdge trait_V29ybGQ=" vector-effect="non-scaling-stroke" id="node#4" stroke="green"></path><path d="M 662.3429539921402 388.48015136718755 H 653.8388209451016 V 314.8213256835937" fill="none" stroke-opacity="1" class="treeEdge trait_V29ybGQ=" vector-effect="non-scaling-stroke" id="node#6" stroke="green"></path><path d="M 786.1006389533031 487.80161132812503 H 662.3429539921402 V 388.48015136718755" fill="none" stroke-opacity="1" class="treeEdge trait_Uw==" vector-effect="non-scaling-stroke" id="node#7" stroke="red"></path><path d="M 796.591971530129 518.31416015625 H 786.1006389533031 V 487.80161132812503" fill="none" stroke-opacity="1" class="treeEdge trait_Uw==" vector-effect="non-scaling-stroke" id="node#8" stroke="red"></path><path d="M 802.40367459374 537.9533203125001 H 796.591971530129 V 518.31416015625" fill="none" stroke-opacity="1" class="treeEdge trait_Uw==" vector-effect="non-scaling-stroke" id="node#9" stroke="red"></path><path d="M 813.5565600891669 558.8378906250001 H 802.40367459374 V 537.9533203125001" fill="none" stroke-opacity="1" class="treeEdge trait_Uw==" vector-effect="non-scaling-stroke" id="node#13" stroke="red"></path><path d="M 819.9990070237783 576.0820312500001 H 813.5565600891669 V 558.8378906250001" fill="none" stroke-opacity="1" class="treeEdge trait_Uw==" vector-effect="non-scaling-stroke" id="node#14" stroke="red"></path><path d="M 824.5258581308644 592.1765625 H 819.9990070237783 V 576.0820312500001" fill="none" stroke-opacity="1" class="treeEdge trait_Uw==" vector-effect="non-scaling-stroke" id="node#15" stroke="red"></path><path d="M 828.4206205498609 605.9718750000001 H 824.5258581308644 V 592.1765625" fill="none" stroke-opacity="1" class="treeEdge trait_Uw==" vector-effect="non-scaling-stroke" id="node#16" stroke="red"></path><path d="M 830.8510820965971 615.16875 H 828.4206205498609 V 605.9718750000001" fill="none" stroke-opacity="1" class="treeEdge trait_Uw==" vector-effect="non-scaling-stroke" id="node#17" stroke="red"></path><path d="M 834.0601589635122 621.3000000000001 H 830.8510820965971 V 615.16875" fill="none" stroke-opacity="1" class="treeEdge trait_Uw==" vector-effect="non-scaling-stroke" id="node#18" stroke="red"></path><path d="M 845.3875343482629 609.0375 H 830.8510820965971 V 615.16875" fill="none" stroke-opacity="1" class="treeEdge trait_Uw==" vector-effect="non-scaling-stroke" id="node#19" stroke="red"></path><path d="M 848.7857477351041 596.7750000000001 H 828.4206205498609 V 605.9718750000001" fill="none" stroke-opacity="1" class="treeEdge trait_Uw==" vector-effect="non-scaling-stroke" id="node#20" stroke="red"></path><path d="M 833.0052698983777 578.3812500000001 H 824.5258581308644 V 592.1765625" fill="none" stroke-opacity="1" class="treeEdge trait_Uw==" vector-effect="non-scaling-stroke" id="node#21" stroke="red"></path><path d="M 838.5911074605248 584.5125 H 833.0052698983777 V 578.3812500000001" fill="none" stroke-opacity="1" class="treeEdge trait_Uw==" vector-effect="non-scaling-stroke" id="node#22" stroke="red"></path><path d="M 857.8476488829705 572.25 H 833.0052698983777 V 578.3812500000001" fill="none" stroke-opacity="1" class="treeEdge trait_Uw==" vector-effect="non-scaling-stroke" id="node#23" stroke="red"></path><path d="M 845.3875343623099 559.9875000000001 H 819.9990070237783 V 576.0820312500001" fill="none" stroke-opacity="1" class="treeEdge trait_Tg==" vector-effect="non-scaling-stroke" id="node#24" stroke="blue"></path><path d="M 818.4963230232787 541.59375 H 813.5565600891669 V 558.8378906250001" fill="none" stroke-opacity="1" class="treeEdge trait_Uw==" vector-effect="non-scaling-stroke" id="node#25" stroke="red"></path><path d="M 855.5821705272259 547.725 H 818.4963230232787 V 541.59375" fill="none" stroke-opacity="1" class="treeEdge trait_Uw==" vector-effect="non-scaling-stroke" id="node#26" stroke="red"></path><path d="M 847.6530085804029 535.4625 H 818.4963230232787 V 541.59375" fill="none" stroke-opacity="1" class="treeEdge trait_Tg==" vector-effect="non-scaling-stroke" id="node#27" stroke="blue"></path><path d="M 828.0160845570406 517.06875 H 802.40367459374 V 537.9533203125001" fill="none" stroke-opacity="1" class="treeEdge trait_Tg==" vector-effect="non-scaling-stroke" id="node#10" stroke="blue"></path><path d="M 871.4404985123523 523.2 H 828.0160845570406 V 517.06875" fill="none" stroke-opacity="1" class="treeEdge trait_Tg==" vector-effect="non-scaling-stroke" id="node#11" stroke="blue"></path><path d="M 830.6619455131557 510.9375 H 828.0160845570406 V 517.06875" fill="none" stroke-opacity="1" class="treeEdge trait_Tg==" vector-effect="non-scaling-stroke" id="node#12" stroke="blue"></path><path d="M 808.00719476014 498.675 H 796.591971530129 V 518.31416015625" fill="none" stroke-opacity="1" class="treeEdge trait_Uw==" vector-effect="non-scaling-stroke" id="node#28" stroke="red"></path><path d="M 792.6628812744727 457.2890625 H 786.1006389533031 V 487.80161132812503" fill="none" stroke-opacity="1" class="treeEdge trait_Uw==" vector-effect="non-scaling-stroke" id="node#29" stroke="red"></path><path d="M 828.581245013417 471.084375 H 792.6628812744727 V 457.2890625" fill="none" stroke-opacity="1" class="treeEdge trait_Uw==" vector-effect="non-scaling-stroke" id="node#30" stroke="red"></path><path d="M 834.6473940693412 480.28125000000006 H 828.581245013417 V 471.084375" fill="none" stroke-opacity="1" class="treeEdge trait_Uw==" vector-effect="non-scaling-stroke" id="node#31" stroke="red"></path><path d="M 887.2988223768456 486.4125 H 834.6473940693412 V 480.28125000000006" fill="none" stroke-opacity="1" class="treeEdge trait_Uw==" vector-effect="non-scaling-stroke" id="node#32" stroke="red"></path><path d="M 844.2547951345372 474.15000000000003 H 834.6473940693412 V 480.28125000000006" fill="none" stroke-opacity="1" class="treeEdge trait_Uw==" vector-effect="non-scaling-stroke" id="node#33" stroke="red"></path><path d="M 838.5911074529506 461.88750000000005 H 828.581245013417 V 471.084375" fill="none" stroke-opacity="1" class="treeEdge trait_Uw==" vector-effect="non-scaling-stroke" id="node#34" stroke="red"></path><path d="M 806.4369147453905 443.49375 H 792.6628812744727 V 457.2890625" fill="none" stroke-opacity="1" class="treeEdge trait_Uw==" vector-effect="non-scaling-stroke" id="node#35" stroke="red"></path><path d="M 830.6619454931882 449.62499999999994 H 806.4369147453905 V 443.49375" fill="none" stroke-opacity="1" class="treeEdge trait_Uw==" vector-effect="non-scaling-stroke" id="node#36" stroke="red"></path><path d="M 813.6708824335459 437.3625 H 806.4369147453905 V 443.49375" fill="none" stroke-opacity="1" class="treeEdge trait_Uw==" vector-effect="non-scaling-stroke" id="node#37" stroke="red"></path><path d="M 708.0593620287269 289.15869140625006 H 662.3429539921402 V 388.48015136718755" fill="none" stroke-opacity="1" class="treeEdge trait_V29ybGQ=" vector-effect="non-scaling-stroke" id="node#38" stroke="green"></path><path d="M 813.0746358713557 318.76113281249997 H 708.0593620287269 V 289.15869140625006" fill="none" stroke-opacity="1" class="treeEdge trait_V29ybGQ=" vector-effect="non-scaling-stroke" id="node#39" stroke="green"></path><path d="M 824.2081846459694 353.441015625 H 813.0746358713557 V 318.76113281249997" fill="none" stroke-opacity="1" class="treeEdge trait_Tg==" vector-effect="non-scaling-stroke" id="node#40" stroke="blue"></path><path d="M 827.6624600494076 384.48046875 H 824.2081846459694 V 353.441015625" fill="none" stroke-opacity="1" class="treeEdge trait_Tg==" vector-effect="non-scaling-stroke" id="node#41" stroke="blue"></path><path d="M 829.7799659176972 399.0421875 H 827.6624600494076 V 384.48046875" fill="none" stroke-opacity="1" class="treeEdge trait_Tg==" vector-effect="non-scaling-stroke" id="node#42" stroke="blue"></path><path d="M 837.8349988722841 409.771875 H 829.7799659176972 V 399.0421875" fill="none" stroke-opacity="1" class="treeEdge trait_Tg==" vector-effect="non-scaling-stroke" id="node#43" stroke="blue"></path><path d="M 845.1551150703033 418.96875 H 837.8349988722841 V 409.771875" fill="none" stroke-opacity="1" class="treeEdge trait_Tg==" vector-effect="non-scaling-stroke" id="node#44" stroke="blue"></path><path d="M 879.3696603408033 425.1 H 845.1551150703033 V 418.96875" fill="none" stroke-opacity="1" class="treeEdge trait_Tg==" vector-effect="non-scaling-stroke" id="node#45" stroke="blue"></path><path d="M 865.7768107221947 412.8375 H 845.1551150703033 V 418.96875" fill="none" stroke-opacity="1" class="treeEdge trait_Tg==" vector-effect="non-scaling-stroke" id="node#46" stroke="blue"></path><path d="M 877.1041861863434 400.575 H 837.8349988722841 V 409.771875" fill="none" stroke-opacity="1" class="treeEdge trait_Tg==" vector-effect="non-scaling-stroke" id="node#47" stroke="blue"></path><path d="M 837.4583722810985 388.31250000000006 H 829.7799659176972 V 399.0421875" fill="none" stroke-opacity="1" class="treeEdge trait_Tg==" vector-effect="non-scaling-stroke" id="node#48" stroke="blue"></path><path d="M 831.1017327638949 369.91875 H 827.6624600494076 V 384.48046875" fill="none" stroke-opacity="1" class="treeEdge trait_Tg==" vector-effect="non-scaling-stroke" id="node#49" stroke="blue"></path><path d="M 837.4583722784797 376.04999999999995 H 831.1017327638949 V 369.91875" fill="none" stroke-opacity="1" class="treeEdge trait_Tg==" vector-effect="non-scaling-stroke" id="node#50" stroke="blue"></path><path d="M 870.3077592086098 363.7875 H 831.1017327638949 V 369.91875" fill="none" stroke-opacity="1" class="treeEdge trait_Tg==" vector-effect="non-scaling-stroke" id="node#51" stroke="blue"></path><path d="M 834.9702570609483 322.4015625 H 824.2081846459694 V 353.441015625" fill="none" stroke-opacity="1" class="treeEdge trait_Tg==" vector-effect="non-scaling-stroke" id="node#52" stroke="blue"></path><path d="M 841.7458659839685 336.196875 H 834.9702570609483 V 322.4015625" fill="none" stroke-opacity="1" class="treeEdge trait_Tg==" vector-effect="non-scaling-stroke" id="node#53" stroke="blue"></path><path d="M 848.5597649134994 345.39375 H 841.7458659839685 V 336.196875" fill="none" stroke-opacity="1" class="treeEdge trait_Tg==" vector-effect="non-scaling-stroke" id="node#54" stroke="blue"></path><path d="M 872.5732334522853 351.52500000000003 H 848.5597649134994 V 345.39375" fill="none" stroke-opacity="1" class="treeEdge trait_Tg==" vector-effect="non-scaling-stroke" id="node#55" stroke="blue"></path><path d="M 903.1571503199237 339.26249999999993 H 848.5597649134994 V 345.39375" fill="none" stroke-opacity="1" class="treeEdge trait_Tg==" vector-effect="non-scaling-stroke" id="node#56" stroke="blue"></path><path d="M 853.3166961603677 327 H 841.7458659839685 V 336.196875" fill="none" stroke-opacity="1" class="treeEdge trait_Tg==" vector-effect="non-scaling-stroke" id="node#57" stroke="blue"></path><path d="M 839.826584662134 308.60625 H 834.9702570609483 V 322.4015625" fill="none" stroke-opacity="1" class="treeEdge trait_Tg==" vector-effect="non-scaling-stroke" id="node#58" stroke="blue"></path><path d="M 841.9893207740915 314.73749999999995 H 839.826584662134 V 308.60625" fill="none" stroke-opacity="1" class="treeEdge trait_Tg==" vector-effect="non-scaling-stroke" id="node#59" stroke="blue"></path><path d="M 916.75 302.475 H 839.826584662134 V 308.60625" fill="none" stroke-opacity="1" class="treeEdge trait_Tg==" vector-effect="non-scaling-stroke" id="node#60" stroke="blue"></path><path d="M 851.0141873600745 284.08124999999995 H 813.0746358713557 V 318.76113281249997" fill="none" stroke-opacity="1" class="treeEdge trait_Tg==" vector-effect="non-scaling-stroke" id="node#61" stroke="blue"></path><path d="M 887.2988223073129 290.2125 H 851.0141873600745 V 284.08124999999995" fill="none" stroke-opacity="1" class="treeEdge trait_Tg==" vector-effect="non-scaling-stroke" id="node#62" stroke="blue"></path><path d="M 873.7059726675299 277.95 H 851.0141873600745 V 284.08124999999995" fill="none" stroke-opacity="1" class="treeEdge trait_Tg==" vector-effect="non-scaling-stroke" id="node#63" stroke="blue"></path><path d="M 802.7244795505073 259.55625000000003 H 708.0593620287269 V 289.15869140625006" fill="none" stroke-opacity="1" class="treeEdge trait_V29ybGQ=" vector-effect="non-scaling-stroke" id="node#64" stroke="green"></path><path d="M 877.1041861973283 265.68750000000006 H 802.7244795505073 V 259.55625000000003" fill="none" stroke-opacity="1" class="treeEdge trait_Tg==" vector-effect="non-scaling-stroke" id="node#65" stroke="blue"></path><path d="M 874.8387119582765 253.425 H 802.7244795505073 V 259.55625000000003" fill="none" stroke-opacity="1" class="treeEdge trait_Tg==" vector-effect="non-scaling-stroke" id="node#66" stroke="blue"></path><path d="M 821.600044199017 241.16249999999997 H 653.8388209451016 V 314.8213256835937" fill="none" stroke-opacity="1" class="treeEdge trait_Tg==" vector-effect="non-scaling-stroke" id="node#5" stroke="blue"></path><path d="M 628.0315541904872 178.3171875 H 416.1259849492829 V 246.5692565917969" fill="none" stroke-opacity="1" class="treeEdge trait_V29ybGQ=" vector-effect="non-scaling-stroke" id="node#67" stroke="green"></path><path d="M 806.4236357027094 202.84218750000002 H 628.0315541904872 V 178.3171875" fill="none" stroke-opacity="1" class="treeEdge trait_V29ybGQ=" vector-effect="non-scaling-stroke" id="node#68" stroke="green"></path><path d="M 814.1324488235607 213.57187500000003 H 806.4236357027094 V 202.84218750000002" fill="none" stroke-opacity="1" class="treeEdge trait_V29ybGQ=" vector-effect="non-scaling-stroke" id="node#70" stroke="green"></path><path d="M 835.6733426472822 222.76875000000007 H 814.1324488235607 V 213.57187500000003" fill="none" stroke-opacity="1" class="treeEdge trait_V29ybGQ=" vector-effect="non-scaling-stroke" id="node#71" stroke="green"></path><path d="M 892.9625096891697 228.90000000000003 H 835.6733426472822 V 222.76875000000007" fill="none" stroke-opacity="1" class="treeEdge trait_Tg==" vector-effect="non-scaling-stroke" id="node#72" stroke="blue"></path><path d="M 864.6440711032583 216.6375 H 835.6733426472822 V 222.76875000000007" fill="none" stroke-opacity="1" class="treeEdge trait_Uw==" vector-effect="non-scaling-stroke" id="node#73" stroke="red"></path><path d="M 843.1220596430717 204.375 H 814.1324488235607 V 213.57187500000003" fill="none" stroke-opacity="1" class="treeEdge trait_Tg==" vector-effect="non-scaling-stroke" id="node#74" stroke="blue"></path><path d="M 848.7857473081096 192.1125 H 806.4236357027094 V 202.84218750000002" fill="none" stroke-opacity="1" class="treeEdge trait_Tg==" vector-effect="non-scaling-stroke" id="node#69" stroke="blue"></path><path d="M 767.8867145288954 153.79218749999998 H 628.0315541904872 V 178.3171875" fill="none" stroke-opacity="1" class="treeEdge trait_V29ybGQ=" vector-effect="non-scaling-stroke" id="node#75" stroke="green"></path><path d="M 783.2946632103965 164.52187499999997 H 767.8867145288954 V 153.79218749999998" fill="none" stroke-opacity="1" class="treeEdge trait_V29ybGQ=" vector-effect="non-scaling-stroke" id="node#76" stroke="green"></path><path d="M 796.4050605483467 173.71874999999994 H 783.2946632103965 V 164.52187499999997" fill="none" stroke-opacity="1" class="treeEdge trait_V29ybGQ=" vector-effect="non-scaling-stroke" id="node#78" stroke="green"></path><path d="M 861.2458579079168 179.85000000000002 H 796.4050605483467 V 173.71874999999994" fill="none" stroke-opacity="1" class="treeEdge trait_Tg==" vector-effect="non-scaling-stroke" id="node#79" stroke="blue"></path><path d="M 853.3166958083364 167.58749999999998 H 796.4050605483467 V 173.71874999999994" fill="none" stroke-opacity="1" class="treeEdge trait_Tg==" vector-effect="non-scaling-stroke" id="node#80" stroke="blue"></path><path d="M 805.7417200899832 155.32500000000005 H 783.2946632103965 V 164.52187499999997" fill="none" stroke-opacity="1" class="treeEdge trait_Tg==" vector-effect="non-scaling-stroke" id="node#77" stroke="blue"></path><path d="M 847.6530081195365 143.0625 H 767.8867145288954 V 153.79218749999998" fill="none" stroke-opacity="1" class="treeEdge trait_Tg==" vector-effect="non-scaling-stroke" id="node#81" stroke="blue"></path><path d="M 782.765940299112 97.078125 H 329.66682246336165 V 171.82369079589841" fill="none" stroke-opacity="1" class="treeEdge trait_V29ybGQ=" vector-effect="non-scaling-stroke" id="node#82" stroke="green"></path><path d="M 823.8551200115636 115.47187500000001 H 782.765940299112 V 97.078125" fill="none" stroke-opacity="1" class="treeEdge trait_V29ybGQ=" vector-effect="non-scaling-stroke" id="node#83" stroke="green"></path><path d="M 834.517691245221 124.66875 H 823.8551200115636 V 115.47187500000001" fill="none" stroke-opacity="1" class="treeEdge trait_V29ybGQ=" vector-effect="non-scaling-stroke" id="node#84" stroke="green"></path><path d="M 874.8387112040973 130.79999999999998 H 834.517691245221 V 124.66875" fill="none" stroke-opacity="1" class="treeEdge trait_Tg==" vector-effect="non-scaling-stroke" id="node#85" stroke="blue"></path><path d="M 866.909545139543 118.53750000000002 H 834.517691245221 V 124.66875" fill="none" stroke-opacity="1" class="treeEdge trait_Tg==" vector-effect="non-scaling-stroke" id="node#86" stroke="blue"></path><path d="M 841.9893201490203 106.275 H 823.8551200115636 V 115.47187500000001" fill="none" stroke-opacity="1" class="treeEdge trait_Tg==" vector-effect="non-scaling-stroke" id="node#87" stroke="blue"></path><path d="M 827.8003720106274 78.684375 H 782.765940299112 V 97.078125" fill="none" stroke-opacity="1" class="treeEdge trait_V29ybGQ=" vector-effect="non-scaling-stroke" id="node#88" stroke="green"></path><path d="M 842.5886566304233 87.88125000000001 H 827.8003720106274 V 78.684375" fill="none" stroke-opacity="1" class="treeEdge trait_V29ybGQ=" vector-effect="non-scaling-stroke" id="node#89" stroke="green"></path><path d="M 894.0952485342264 94.01249999999999 H 842.5886566304233 V 87.88125000000001" fill="none" stroke-opacity="1" class="treeEdge trait_Tg==" vector-effect="non-scaling-stroke" id="node#90" stroke="blue"></path><path d="M 900.8916713097698 81.75000000000003 H 842.5886566304233 V 87.88125000000001" fill="none" stroke-opacity="1" class="treeEdge trait_Tg==" vector-effect="non-scaling-stroke" id="node#91" stroke="blue"></path><path d="M 847.6530078787627 69.48750000000001 H 827.8003720106274 V 78.684375" fill="none" stroke-opacity="1" class="treeEdge trait_Tg==" vector-effect="non-scaling-stroke" id="node#92" stroke="blue"></path><path d="M 773.3198926168835 51.09375 H 181.5490287579886 V 111.45872039794921" fill="none" stroke-opacity="1" class="treeEdge trait_V29ybGQ=" vector-effect="non-scaling-stroke" id="node#93" stroke="green"></path><path d="M 837.4583719924574 57.22499999999998 H 773.3198926168835 V 51.09375" fill="none" stroke-opacity="1" class="treeEdge trait_Tg==" vector-effect="non-scaling-stroke" id="node#94" stroke="blue"></path><path d="M 808.0071943211474 44.96250000000003 H 773.3198926168835 V 51.09375" fill="none" stroke-opacity="1" class="treeEdge trait_Tg==" vector-effect="non-scaling-stroke" id="node#95" stroke="blue"></path><path d="M 803.4762463114339 32.7 H 56.849009900990204 V 72.07936019897457" fill="none" stroke-opacity="1" class="treeEdge trait_Uw==" vector-effect="non-scaling-stroke" id="node#96" stroke="red"></path><text x="834.0601589635122" y="621.3000000000001" transform="matrix(1 0 0 1 0 0) matrix(1 0 0 1 0 0)"></text><text x="845.3875343482629" y="609.0375" transform="matrix(1 0 0 1 0 0) matrix(1 0 0 1 0 0)"></text><text x="848.7857477351041" y="596.7750000000001" transform="matrix(1 0 0 1 0 0) matrix(1 0 0 1 0 0)"></text><text x="838.5911074605248" y="584.5125" transform="matrix(1 0 0 1 0 0) matrix(1 0 0 1 0 0)"></text><text x="857.8476488829705" y="572.25" transform="matrix(1 0 0 1 0 0) matrix(1 0 0 1 0 0)"></text><text x="845.3875343623099" y="559.9875000000001" transform="matrix(1 0 0 1 0 0) matrix(1 0 0 1 0 0)"></text><text x="855.5821705272259" y="547.725" transform="matrix(1 0 0 1 0 0) matrix(1 0 0 1 0 0)"></text><text x="847.6530085804029" y="535.4625" transform="matrix(1 0 0 1 0 0) matrix(1 0 0 1 0 0)"></text><text x="871.4404985123523" y="523.2" transform="matrix(1 0 0 1 0 0) matrix(1 0 0 1 0 0)"></text><text x="830.6619455131557" y="510.9375" transform="matrix(1 0 0 1 0 0) matrix(1 0 0 1 0 0)"></text><text x="808.00719476014" y="498.675" transform="matrix(1 0 0 1 0 0) matrix(1 0 0 1 0 0)"></text><text x="887.2988223768456" y="486.4125" transform="matrix(1 0 0 1 0 0) matrix(1 0 0 1 0 0)"></text><text x="844.2547951345372" y="474.15000000000003" transform="matrix(1 0 0 1 0 0) matrix(1 0 0 1 0 0)"></text><text x="838.5911074529506" y="461.88750000000005" transform="matrix(1 0 0 1 0 0) matrix(1 0 0 1 0 0)"></text><text x="830.6619454931882" y="449.62499999999994" transform="matrix(1 0 0 1 0 0) matrix(1 0 0 1 0 0)"></text><text x="813.6708824335459" y="437.3625" transform="matrix(1 0 0 1 0 0) matrix(1 0 0 1 0 0)"></text><text x="879.3696603408033" y="425.1" transform="matrix(1 0 0 1 0 0) matrix(1 0 0 1 0 0)"></text><text x="865.7768107221947" y="412.8375" transform="matrix(1 0 0 1 0 0) matrix(1 0 0 1 0 0)"></text><text x="877.1041861863434" y="400.575" transform="matrix(1 0 0 1 0 0) matrix(1 0 0 1 0 0)"></text><text x="837.4583722810985" y="388.31250000000006" transform="matrix(1 0 0 1 0 0) matrix(1 0 0 1 0 0)"></text><text x="837.4583722784797" y="376.04999999999995" transform="matrix(1 0 0 1 0 0) matrix(1 0 0 1 0 0)"></text><text x="870.3077592086098" y="363.7875" transform="matrix(1 0 0 1 0 0) matrix(1 0 0 1 0 0)"></text><text x="872.5732334522853" y="351.52500000000003" transform="matrix(1 0 0 1 0 0) matrix(1 0 0 1 0 0)"></text><text x="903.1571503199237" y="339.26249999999993" transform="matrix(1 0 0 1 0 0) matrix(1 0 0 1 0 0)"></text><text x="853.3166961603677" y="327" transform="matrix(1 0 0 1 0 0) matrix(1 0 0 1 0 0)"></text><text x="841.9893207740915" y="314.73749999999995" transform="matrix(1 0 0 1 0 0) matrix(1 0 0 1 0 0)"></text><text x="916.75" y="302.475" transform="matrix(1 0 0 1 0 0) matrix(1 0 0 1 0 0)"></text><text x="887.2988223073129" y="290.2125" transform="matrix(1 0 0 1 0 0) matrix(1 0 0 1 0 0)"></text><text x="873.7059726675299" y="277.95" transform="matrix(1 0 0 1 0 0) matrix(1 0 0 1 0 0)"></text><text x="877.1041861973283" y="265.68750000000006" transform="matrix(1 0 0 1 0 0) matrix(1 0 0 1 0 0)"></text><text x="874.8387119582765" y="253.425" transform="matrix(1 0 0 1 0 0) matrix(1 0 0 1 0 0)"></text><text x="821.600044199017" y="241.16249999999997" transform="matrix(1 0 0 1 0 0) matrix(1 0 0 1 0 0)"></text><text x="892.9625096891697" y="228.90000000000003" transform="matrix(1 0 0 1 0 0) matrix(1 0 0 1 0 0)"></text><text x="864.6440711032583" y="216.6375" transform="matrix(1 0 0 1 0 0) matrix(1 0 0 1 0 0)"></text><text x="843.1220596430717" y="204.375" transform="matrix(1 0 0 1 0 0) matrix(1 0 0 1 0 0)"></text><text x="848.7857473081096" y="192.1125" transform="matrix(1 0 0 1 0 0) matrix(1 0 0 1 0 0)"></text><text x="861.2458579079168" y="179.85000000000002" transform="matrix(1 0 0 1 0 0) matrix(1 0 0 1 0 0)"></text><text x="853.3166958083364" y="167.58749999999998" transform="matrix(1 0 0 1 0 0) matrix(1 0 0 1 0 0)"></text><text x="805.7417200899832" y="155.32500000000005" transform="matrix(1 0 0 1 0 0) matrix(1 0 0 1 0 0)"></text><text x="847.6530081195365" y="143.0625" transform="matrix(1 0 0 1 0 0) matrix(1 0 0 1 0 0)"></text><text x="874.8387112040973" y="130.79999999999998" transform="matrix(1 0 0 1 0 0) matrix(1 0 0 1 0 0)"></text><text x="866.909545139543" y="118.53750000000002" transform="matrix(1 0 0 1 0 0) matrix(1 0 0 1 0 0)"></text><text x="841.9893201490203" y="106.275" transform="matrix(1 0 0 1 0 0) matrix(1 0 0 1 0 0)"></text><text x="894.0952485342264" y="94.01249999999999" transform="matrix(1 0 0 1 0 0) matrix(1 0 0 1 0 0)"></text><text x="900.8916713097698" y="81.75000000000003" transform="matrix(1 0 0 1 0 0) matrix(1 0 0 1 0 0)"></text><text x="847.6530078787627" y="69.48750000000001" transform="matrix(1 0 0 1 0 0) matrix(1 0 0 1 0 0)"></text><text x="837.4583719924574" y="57.22499999999998" transform="matrix(1 0 0 1 0 0) matrix(1 0 0 1 0 0)"></text><text x="808.0071943211474" y="44.96250000000003" transform="matrix(1 0 0 1 0 0) matrix(1 0 0 1 0 0)"></text><text x="803.4762463114339" y="32.7" transform="matrix(1 0 0 1 0 0) matrix(1 0 0 1 0 0)"></text><line x1="916.75" y1="654" x2="916.75" y2="-1.4210854715202004e-14" stroke="gray" stroke-width="1px" vector-effect="non-scaling-stroke" class="axisComponent"></line><text x="916.75" y="654" fill="gray" class="axisComponent" transform="matrix(1 0 0 1 0 0) matrix(1 0 0 1 0 0)">2012.7</text><line x1="503.30079442630665" y1="654" x2="503.30079442630665" y2="-1.4210854715202004e-14" stroke="gray" stroke-width="1px" vector-effect="non-scaling-stroke" class="axisComponent"></line><text x="503.30079442630665" y="654" fill="gray" class="axisComponent" transform="matrix(1 0 0 1 0 0) matrix(1 0 0 1 0 0)">2011.7</text><line x1="89.8515888526134" y1="654" x2="89.8515888526134" y2="-1.4210854715202004e-14" stroke="gray" stroke-width="1px" vector-effect="non-scaling-stroke" class="axisComponent"></line><text x="89.8515888526134" y="654" fill="gray" class="axisComponent" transform="matrix(1 0 0 1 0 0) matrix(1 0 0 1 0 0)">2010.7</text><text class="axisComponent" x="10" y="549" transform="matrix(1 0 0 1 0 0) matrix(1 0 0 1 0 0)">Type</text><rect x="15" y="559" width="10" height="10" fill="blue" class="axisComponent"></rect><text class="axisComponent" x="35" y="569" fill="blue" transform="matrix(1 0 0 1 0 0) matrix(1 0 0 1 0 0)">N</text><rect x="15" y="579" width="10" height="10" fill="red" class="axisComponent"></rect><text class="axisComponent" x="35" y="589" fill="red" transform="matrix(1 0 0 1 0 0) matrix(1 0 0 1 0 0)">S</text><rect x="15" y="599" width="10" height="10" fill="green" class="axisComponent"></rect><text class="axisComponent" x="35" y="609" fill="green" transform="matrix(1 0 0 1 0 0) matrix(1 0 0 1 0 0)">World</text></svg>