<svg xmlns="http://www.w3.org/2000/svg" version="1.1" width="527" height="784" preserveAspectRatio="none" style="stroke-width: 2px; font-size: 11px; font-family: sans-serif; shape-rendering: crispedges;" id="SVG" viewBox="-20 -46 583.2833251953125 856"><rect id="backgroundRect" x="-20" y="-46" width="583.2833251953125" height="856" fill="white"></rect><path d="M 474.1189192042852 784 H 466.61602261057567 V 777.3559322033899" fill="none" stroke="black" stroke-width="2" class="treeEdge" vector-effect="non-scaling-stroke" id="node#18"></path><path d="M 474.1189192042852 770.7118644067797 H 466.61602261057567 V 777.3559322033899" fill="none" stroke="black" stroke-width="2" class="treeEdge" vector-effect="non-scaling-stroke" id="node#19"></path><path d="M 474.1189192042852 757.4237288135593 H 464.9081816199772 V 767.3898305084746" fill="none" stroke="black" stroke-width="2" class="treeEdge" vector-effect="non-scaling-stroke" id="node#20"></path><path d="M 474.1189192042852 744.135593220339 H 376.5248308914025 V 755.7627118644068" fill="none" stroke="black" stroke-width="2" class="treeEdge" vector-effect="non-scaling-stroke" id="node#15"></path><path d="M 526.9999999999998 730.8474576271186 H 391.6449697449696 V 724.2033898305085" fill="none" stroke="black" stroke-width="2" class="treeEdge" vector-effect="non-scaling-stroke" id="node#12"></path><path d="M 526.9999999999998 717.5593220338983 H 391.6449697449696 V 724.2033898305085" fill="none" stroke="black" stroke-width="2" class="treeEdge" vector-effect="non-scaling-stroke" id="node#13"></path><path d="M 526.9999999999998 704.271186440678 H 373.60245975282544 V 714.2372881355932" fill="none" stroke="black" stroke-width="2" class="treeEdge" vector-effect="non-scaling-stroke" id="node#10"></path><path d="M 421.2378384085706 690.9830508474577 H 319.9934565277282 V 712.9915254237287" fill="none" stroke="black" stroke-width="2" class="treeEdge" vector-effect="non-scaling-stroke" id="node#21"></path><path d="M 315.4756768171412 677.6949152542373 H 303.4658100860136 V 695.3432203389831" fill="none" stroke="black" stroke-width="2" class="treeEdge" vector-effect="non-scaling-stroke" id="node#22"></path><path d="M 474.11891920428525 664.4067796610169 H 407.31121891195284 V 657.7627118644068" fill="none" stroke="black" stroke-width="2" class="treeEdge" vector-effect="non-scaling-stroke" id="node#35"></path><path d="M 526.9999999999999 651.1186440677966 H 407.31121891195284 V 657.7627118644068" fill="none" stroke="black" stroke-width="2" class="treeEdge" vector-effect="non-scaling-stroke" id="node#36"></path><path d="M 526.9999999999999 637.8305084745763 H 348.7942218059549 V 647.7966101694915" fill="none" stroke="black" stroke-width="2" class="treeEdge" vector-effect="non-scaling-stroke" id="node#37"></path><path d="M 526.9999999999999 624.542372881356 H 400.14701116634046 V 617.8983050847457" fill="none" stroke="black" stroke-width="2" class="treeEdge" vector-effect="non-scaling-stroke" id="node#39"></path><path d="M 421.2378384085706 611.2542372881356 H 400.14701116634046 V 617.8983050847457" fill="none" stroke="black" stroke-width="2" class="treeEdge" vector-effect="non-scaling-stroke" id="node#40"></path><path d="M 315.4756768171412 597.9661016949152 H 299.6517380200476 V 612.0847457627118" fill="none" stroke="black" stroke-width="2" class="treeEdge" vector-effect="non-scaling-stroke" id="node#41"></path><path d="M 421.2378384085706 584.6779661016949 H 299.6517380200476 V 612.0847457627118" fill="none" stroke="black" stroke-width="2" class="treeEdge" vector-effect="non-scaling-stroke" id="node#42"></path><path d="M 368.356757612856 571.3898305084746 H 357.7369384335085 V 564.7457627118644" fill="none" stroke="black" stroke-width="2" class="treeEdge" vector-effect="non-scaling-stroke" id="node#45"></path><path d="M 474.11891920428525 558.1016949152543 H 357.7369384335085 V 564.7457627118644" fill="none" stroke="black" stroke-width="2" class="treeEdge" vector-effect="non-scaling-stroke" id="node#46"></path><path d="M 474.11891920428525 544.8135593220338 H 435.0715457042858 V 538.1694915254237" fill="none" stroke="black" stroke-width="2" class="treeEdge" vector-effect="non-scaling-stroke" id="node#51"></path><path d="M 474.11891920428525 531.5254237288135 H 435.0715457042858 V 538.1694915254237" fill="none" stroke="black" stroke-width="2" class="treeEdge" vector-effect="non-scaling-stroke" id="node#52"></path><path d="M 421.2378384085706 518.2372881355932 H 308.63215183892487 V 516.0225988700565" fill="none" stroke="black" stroke-width="2" class="treeEdge" vector-effect="non-scaling-stroke" id="node#47"></path><path d="M 315.4756768171412 504.94915254237293 H 308.63215183892487 V 516.0225988700565" fill="none" stroke="black" stroke-width="2" class="treeEdge" vector-effect="non-scaling-stroke" id="node#48"></path><path d="M 315.4756768171412 491.66101694915255 H 308.63215183892487 V 516.0225988700565" fill="none" stroke="black" stroke-width="2" class="treeEdge" vector-effect="non-scaling-stroke" id="node#49"></path><path d="M 315.4756768171412 478.3728813559321 H 308.63215183892487 V 516.0225988700565" fill="none" stroke="black" stroke-width="2" class="treeEdge" vector-effect="non-scaling-stroke" id="node#53"></path><path d="M 368.356757612856 465.08474576271186 H 359.62203351901354 V 458.4406779661017" fill="none" stroke="black" stroke-width="2" class="treeEdge" vector-effect="non-scaling-stroke" id="node#26"></path><path d="M 368.356757612856 451.79661016949154 H 359.62203351901354 V 458.4406779661017" fill="none" stroke="black" stroke-width="2" class="treeEdge" vector-effect="non-scaling-stroke" id="node#27"></path><path d="M 315.4756768171412 438.5084745762712 H 293.7020818991199 V 448.4745762711865" fill="none" stroke="black" stroke-width="2" class="treeEdge" vector-effect="non-scaling-stroke" id="node#28"></path><path d="M 526.9999999999999 425.22033898305085 H 278.2093134704003 V 418.5762711864407" fill="none" stroke="black" stroke-width="2" class="treeEdge" vector-effect="non-scaling-stroke" id="node#30"></path><path d="M 421.23783840857067 411.9322033898305 H 278.2093134704003 V 418.5762711864407" fill="none" stroke="black" stroke-width="2" class="treeEdge" vector-effect="non-scaling-stroke" id="node#31"></path><path d="M 526.9999999999999 398.64406779661016 H 260.5982384945056 V 514.8575800376648" fill="none" stroke="black" stroke-width="2" class="treeEdge" vector-effect="non-scaling-stroke" id="node#23"></path><path d="M 315.47567681714133 385.35593220338984 H 61.31238978474287 V 378.7118644067797" fill="none" stroke="black" stroke-width="2" class="treeEdge" vector-effect="non-scaling-stroke" id="node#3"></path><path d="M 315.47567681714133 372.06779661016947 H 61.31238978474287 V 378.7118644067797" fill="none" stroke="black" stroke-width="2" class="treeEdge" vector-effect="non-scaling-stroke" id="node#4"></path><path d="M 421.23783840857067 358.77966101694915 H 367.9289045550529 V 338.8474576271186" fill="none" stroke="black" stroke-width="2" class="treeEdge" vector-effect="non-scaling-stroke" id="node#71"></path><path d="M 368.3567576128561 345.49152542372883 H 367.9289045550529 V 338.8474576271186" fill="none" stroke="black" stroke-width="2" class="treeEdge" vector-effect="non-scaling-stroke" id="node#72"></path><path d="M 421.23783840857067 332.20338983050846 H 367.9289045550529 V 338.8474576271186" fill="none" stroke="black" stroke-width="2" class="treeEdge" vector-effect="non-scaling-stroke" id="node#73"></path><path d="M 368.3567576128561 318.91525423728814 H 367.9289045550529 V 338.8474576271186" fill="none" stroke="black" stroke-width="2" class="treeEdge" vector-effect="non-scaling-stroke" id="node#74"></path><path d="M 527 305.62711864406776 H 425.71741675981104 V 292.33898305084745" fill="none" stroke="black" stroke-width="2" class="treeEdge" vector-effect="non-scaling-stroke" id="node#78"></path><path d="M 527 292.33898305084745 H 425.71741675981104 V 292.33898305084745" fill="none" stroke="black" stroke-width="2" class="treeEdge" vector-effect="non-scaling-stroke" id="node#79"></path><path d="M 474.11891920428536 279.0508474576272 H 425.71741675981104 V 292.33898305084745" fill="none" stroke="black" stroke-width="2" class="treeEdge" vector-effect="non-scaling-stroke" id="node#80"></path><path d="M 368.356757612856 265.76271186440675 H 364.06218078514553 V 287.35593220338984" fill="none" stroke="black" stroke-width="2" class="treeEdge" vector-effect="non-scaling-stroke" id="node#75"></path><path d="M 368.356757612856 252.47457627118646 H 364.06218078514553 V 287.35593220338984" fill="none" stroke="black" stroke-width="2" class="treeEdge" vector-effect="non-scaling-stroke" id="node#76"></path><path d="M 526.9999999999999 239.18644067796606 H 322.1971257716743 V 263.271186440678" fill="none" stroke="black" stroke-width="2" class="treeEdge" vector-effect="non-scaling-stroke" id="node#68"></path><path d="M 421.23783840857067 225.89830508474577 H 399.6440624164818 V 219.2542372881356" fill="none" stroke="black" stroke-width="2" class="treeEdge" vector-effect="non-scaling-stroke" id="node#63"></path><path d="M 421.23783840857067 212.61016949152545 H 399.6440624164818 V 219.2542372881356" fill="none" stroke="black" stroke-width="2" class="treeEdge" vector-effect="non-scaling-stroke" id="node#64"></path><path d="M 421.23783840857067 199.32203389830508 H 379.57599877006857 V 209.28813559322032" fill="none" stroke="black" stroke-width="2" class="treeEdge" vector-effect="non-scaling-stroke" id="node#65"></path><path d="M 315.47567681714133 186.03389830508476 H 289.9779939330909 V 181.88135593220338" fill="none" stroke="black" stroke-width="2" class="treeEdge" vector-effect="non-scaling-stroke" id="node#59"></path><path d="M 421.23783840857067 172.7457627118644 H 289.9779939330909 V 181.88135593220338" fill="none" stroke="black" stroke-width="2" class="treeEdge" vector-effect="non-scaling-stroke" id="node#60"></path><path d="M 368.356757612856 159.45762711864407 H 289.9779939330909 V 181.88135593220338" fill="none" stroke="black" stroke-width="2" class="treeEdge" vector-effect="non-scaling-stroke" id="node#66"></path><path d="M 315.47567681714133 146.1694915254237 H 263.44375001075986 V 181.05084745762716" fill="none" stroke="black" stroke-width="2" class="treeEdge" vector-effect="non-scaling-stroke" id="node#57"></path><path d="M 315.47567681714133 132.88135593220338 H 263.44375001075986 V 181.05084745762716" fill="none" stroke="black" stroke-width="2" class="treeEdge" vector-effect="non-scaling-stroke" id="node#81"></path><path d="M 368.356757612856 119.59322033898309 H 231.97139231463137 V 112.94915254237293" fill="none" stroke="black" stroke-width="2" class="treeEdge" vector-effect="non-scaling-stroke" id="node#84"></path><path d="M 368.356757612856 106.30508474576268 H 231.97139231463137 V 112.94915254237293" fill="none" stroke="black" stroke-width="2" class="treeEdge" vector-effect="non-scaling-stroke" id="node#85"></path><path d="M 368.356757612856 93.01694915254238 H 78.50272041341178 V 129.0056497175142" fill="none" stroke="black" stroke-width="2" class="treeEdge" vector-effect="non-scaling-stroke" id="node#82"></path><path d="M 526.9999999999999 79.72881355932199 H 468.14444608242775 V 73.08474576271185" fill="none" stroke="black" stroke-width="2" class="treeEdge" vector-effect="non-scaling-stroke" id="node#92"></path><path d="M 474.11891920428525 66.44067796610169 H 468.14444608242775 V 73.08474576271185" fill="none" stroke="black" stroke-width="2" class="treeEdge" vector-effect="non-scaling-stroke" id="node#93"></path><path d="M 421.2378384085706 53.152542372881385 H 370.47109857271175 V 55.36723163841805" fill="none" stroke="black" stroke-width="2" class="treeEdge" vector-effect="non-scaling-stroke" id="node#94"></path><path d="M 474.11891920428525 39.864406779660996 H 370.47109857271175 V 55.36723163841805" fill="none" stroke="black" stroke-width="2" class="treeEdge" vector-effect="non-scaling-stroke" id="node#95"></path><path d="M 474.11891920428525 26.576271186440692 H 361.01214302127653 V 19.932203389830455" fill="none" stroke="black" stroke-width="2" class="treeEdge" vector-effect="non-scaling-stroke" id="node#88"></path><path d="M 368.356757612856 13.288135593220304 H 361.01214302127653 V 19.932203389830455" fill="none" stroke="black" stroke-width="2" class="treeEdge" vector-effect="non-scaling-stroke" id="node#89"></path><path d="M 315.4756768171412 0 H 293.640416931687 V 25.099811676082865" fill="none" stroke="black" stroke-width="2" class="treeEdge" vector-effect="non-scaling-stroke" id="node#96"></path><path d="M 466.61602261057567 777.3559322033899 H 464.9081816199772 V 767.3898305084746" fill="none" stroke="black" stroke-width="2" class="treeEdge" vector-effect="non-scaling-stroke" id="node#17"></path><path d="M 464.9081816199772 767.3898305084746 H 376.5248308914025 V 755.7627118644068" fill="none" stroke="black" stroke-width="2" class="treeEdge" vector-effect="non-scaling-stroke" id="node#16"></path><path d="M 376.5248308914025 755.7627118644068 H 336.0318909628984 V 735" fill="none" stroke="black" stroke-width="2" class="treeEdge" vector-effect="non-scaling-stroke" id="node#14"></path><path d="M 391.6449697449696 724.2033898305085 H 373.60245975282544 V 714.2372881355932" fill="none" stroke="black" stroke-width="2" class="treeEdge" vector-effect="non-scaling-stroke" id="node#11"></path><path d="M 373.60245975282544 714.2372881355932 H 336.0318909628984 V 735" fill="none" stroke="black" stroke-width="2" class="treeEdge" vector-effect="non-scaling-stroke" id="node#9"></path><path d="M 336.0318909628984 735 H 319.9934565277282 V 712.9915254237287" fill="none" stroke="black" stroke-width="2" class="treeEdge" vector-effect="non-scaling-stroke" id="node#8"></path><path d="M 319.9934565277282 712.9915254237287 H 303.4658100860136 V 695.3432203389831" fill="none" stroke="black" stroke-width="2" class="treeEdge" vector-effect="non-scaling-stroke" id="node#7"></path><path d="M 303.4658100860136 695.3432203389831 H 260.5982384945056 V 514.8575800376648" fill="none" stroke="black" stroke-width="2" class="treeEdge" vector-effect="non-scaling-stroke" id="node#6"></path><path d="M 407.31121891195284 657.7627118644068 H 348.7942218059549 V 647.7966101694915" fill="none" stroke="black" stroke-width="2" class="treeEdge" vector-effect="non-scaling-stroke" id="node#34"></path><path d="M 348.7942218059549 647.7966101694915 H 299.6517380200476 V 612.0847457627118" fill="none" stroke="black" stroke-width="2" class="treeEdge" vector-effect="non-scaling-stroke" id="node#33"></path><path d="M 400.14701116634046 617.8983050847457 H 299.6517380200476 V 612.0847457627118" fill="none" stroke="black" stroke-width="2" class="treeEdge" vector-effect="non-scaling-stroke" id="node#38"></path><path d="M 299.6517380200476 612.0847457627118 H 260.5982384945056 V 514.8575800376648" fill="none" stroke="black" stroke-width="2" class="treeEdge" vector-effect="non-scaling-stroke" id="node#32"></path><path d="M 357.7369384335085 564.7457627118644 H 308.63215183892487 V 516.0225988700565" fill="none" stroke="black" stroke-width="2" class="treeEdge" vector-effect="non-scaling-stroke" id="node#44"></path><path d="M 435.0715457042858 538.1694915254237 H 308.63215183892487 V 516.0225988700565" fill="none" stroke="black" stroke-width="2" class="treeEdge" vector-effect="non-scaling-stroke" id="node#50"></path><path d="M 308.63215183892487 516.0225988700565 H 260.5982384945056 V 514.8575800376648" fill="none" stroke="black" stroke-width="2" class="treeEdge" vector-effect="non-scaling-stroke" id="node#43"></path><path d="M 359.62203351901354 458.4406779661017 H 293.7020818991199 V 448.4745762711865" fill="none" stroke="black" stroke-width="2" class="treeEdge" vector-effect="non-scaling-stroke" id="node#25"></path><path d="M 293.7020818991199 448.4745762711865 H 260.5982384945056 V 514.8575800376648" fill="none" stroke="black" stroke-width="2" class="treeEdge" vector-effect="non-scaling-stroke" id="node#24"></path><path d="M 278.2093134704003 418.5762711864407 H 260.5982384945056 V 514.8575800376648" fill="none" stroke="black" stroke-width="2" class="treeEdge" vector-effect="non-scaling-stroke" id="node#29"></path><path d="M 260.5982384945056 514.8575800376648 H 45.54771488021704 V 446.78472222222223" fill="none" stroke="black" stroke-width="2" class="treeEdge" vector-effect="non-scaling-stroke" id="node#5"></path><path d="M 61.31238978474287 378.7118644067797 H 45.54771488021704 V 446.78472222222223" fill="none" stroke="black" stroke-width="2" class="treeEdge" vector-effect="non-scaling-stroke" id="node#2"></path><path d="M 45.54771488021704 446.78472222222223 H 5.2178217821782225 V 261.91872645951037" fill="none" stroke="black" stroke-width="2" class="treeEdge" vector-effect="non-scaling-stroke" id="node#1"></path><path d="M 367.9289045550529 338.8474576271186 H 364.06218078514553 V 287.35593220338984" fill="none" stroke="black" stroke-width="2" class="treeEdge" vector-effect="non-scaling-stroke" id="node#70"></path><path d="M 425.71741675981104 292.33898305084745 H 364.06218078514553 V 287.35593220338984" fill="none" stroke="black" stroke-width="2" class="treeEdge" vector-effect="non-scaling-stroke" id="node#77"></path><path d="M 364.06218078514553 287.35593220338984 H 322.1971257716743 V 263.271186440678" fill="none" stroke="black" stroke-width="2" class="treeEdge" vector-effect="non-scaling-stroke" id="node#69"></path><path d="M 322.1971257716743 263.271186440678 H 263.44375001075986 V 181.05084745762716" fill="none" stroke="black" stroke-width="2" class="treeEdge" vector-effect="non-scaling-stroke" id="node#67"></path><path d="M 399.6440624164818 219.2542372881356 H 379.57599877006857 V 209.28813559322032" fill="none" stroke="black" stroke-width="2" class="treeEdge" vector-effect="non-scaling-stroke" id="node#62"></path><path d="M 379.57599877006857 209.28813559322032 H 289.9779939330909 V 181.88135593220338" fill="none" stroke="black" stroke-width="2" class="treeEdge" vector-effect="non-scaling-stroke" id="node#61"></path><path d="M 289.9779939330909 181.88135593220338 H 263.44375001075986 V 181.05084745762716" fill="none" stroke="black" stroke-width="2" class="treeEdge" vector-effect="non-scaling-stroke" id="node#58"></path><path d="M 263.44375001075986 181.05084745762716 H 78.50272041341178 V 129.0056497175142" fill="none" stroke="black" stroke-width="2" class="treeEdge" vector-effect="non-scaling-stroke" id="node#56"></path><path d="M 231.97139231463137 112.94915254237293 H 78.50272041341178 V 129.0056497175142" fill="none" stroke="black" stroke-width="2" class="treeEdge" vector-effect="non-scaling-stroke" id="node#83"></path><path d="M 78.50272041341178 129.0056497175142 H 41.69983356434545 V 77.05273069679852" fill="none" stroke="black" stroke-width="2" class="treeEdge" vector-effect="non-scaling-stroke" id="node#55"></path><path d="M 468.14444608242775 73.08474576271185 H 370.47109857271175 V 55.36723163841805" fill="none" stroke="black" stroke-width="2" class="treeEdge" vector-effect="non-scaling-stroke" id="node#91"></path><path d="M 370.47109857271175 55.36723163841805 H 293.640416931687 V 25.099811676082865" fill="none" stroke="black" stroke-width="2" class="treeEdge" vector-effect="non-scaling-stroke" id="node#90"></path><path d="M 361.01214302127653 19.932203389830455 H 293.640416931687 V 25.099811676082865" fill="none" stroke="black" stroke-width="2" class="treeEdge" vector-effect="non-scaling-stroke" id="node#87"></path><path d="M 293.640416931687 25.099811676082865 H 41.69983356434545 V 77.05273069679852" fill="none" stroke="black" stroke-width="2" class="treeEdge" vector-effect="non-scaling-stroke" id="node#86"></path><path d="M 41.69983356434545 77.05273069679852 H 5.2178217821782225 V 261.91872645951037" fill="none" stroke="black" stroke-width="2" class="treeEdge" vector-effect="non-scaling-stroke" id="node#54"></path><path d="M 5.2178217821782225 261.91872645951037 H 0 V 261.91872645951037" fill="none" stroke="black" stroke-width="2" class="treeEdge" vector-effect="non-scaling-stroke" id="node#0"></path><text x="474.1189192042852" y="784" dominant-baseline="central" transform="matrix(1.1068, 0, 0, 1.09184, 0, 0) matrix(1, 0, 0, 1, -45.7496, -65.9439)">t17</text><text x="474.1189192042852" y="770.7118644067797" dominant-baseline="central" transform="matrix(1.1068, 0, 0, 1.09184, 0, 0) matrix(1, 0, 0, 1, -45.7496, -64.8262)">t52</text><text x="474.1189192042852" y="757.4237288135593" dominant-baseline="central" transform="matrix(1.1068, 0, 0, 1.09184, 0, 0) matrix(1, 0, 0, 1, -45.7496, -63.7085)">t42</text><text x="474.1189192042852" y="744.135593220339" dominant-baseline="central" transform="matrix(1.1068, 0, 0, 1.09184, 0, 0) matrix(1, 0, 0, 1, -45.7496, -62.5908)">t7</text><text x="526.9999999999998" y="730.8474576271186" dominant-baseline="central" transform="matrix(1.1068, 0, 0, 1.09184, 0, 0) matrix(1, 0, 0, 1, -50.8523, -61.4732)">t36</text><text x="526.9999999999998" y="717.5593220338983" dominant-baseline="central" transform="matrix(1.1068, 0, 0, 1.09184, 0, 0) matrix(1, 0, 0, 1, -50.8523, -60.3555)">t51</text><text x="526.9999999999998" y="704.271186440678" dominant-baseline="central" transform="matrix(1.1068, 0, 0, 1.09184, 0, 0) matrix(1, 0, 0, 1, -50.8523, -59.2378)">t6</text><text x="421.2378384085706" y="690.9830508474577" dominant-baseline="central" transform="matrix(1.1068, 0, 0, 1.09184, 0, 0) matrix(1, 0, 0, 1, -40.6469, -58.1201)">t33</text><text x="315.4756768171412" y="677.6949152542373" dominant-baseline="central" transform="matrix(1.1068, 0, 0, 1.09184, 0, 0) matrix(1, 0, 0, 1, -30.4415, -57.0024)">t30</text><text x="474.11891920428525" y="664.4067796610169" dominant-baseline="central" transform="matrix(1.1068, 0, 0, 1.09184, 0, 0) matrix(1, 0, 0, 1, -45.7496, -55.8847)">t2</text><text x="526.9999999999999" y="651.1186440677966" dominant-baseline="central" transform="matrix(1.1068, 0, 0, 1.09184, 0, 0) matrix(1, 0, 0, 1, -50.8523, -54.767)">t41</text><text x="526.9999999999999" y="637.8305084745763" dominant-baseline="central" transform="matrix(1.1068, 0, 0, 1.09184, 0, 0) matrix(1, 0, 0, 1, -50.8523, -53.6493)">t46</text><text x="526.9999999999999" y="624.542372881356" dominant-baseline="central" transform="matrix(1.1068, 0, 0, 1.09184, 0, 0) matrix(1, 0, 0, 1, -50.8523, -52.5316)">t26</text><text x="421.2378384085706" y="611.2542372881356" dominant-baseline="central" transform="matrix(1.1068, 0, 0, 1.09184, 0, 0) matrix(1, 0, 0, 1, -40.6469, -51.4139)">t38</text><text x="315.4756768171412" y="597.9661016949152" dominant-baseline="central" transform="matrix(1.1068, 0, 0, 1.09184, 0, 0) matrix(1, 0, 0, 1, -30.4415, -50.2962)">t35</text><text x="421.2378384085706" y="584.6779661016949" dominant-baseline="central" transform="matrix(1.1068, 0, 0, 1.09184, 0, 0) matrix(1, 0, 0, 1, -40.6469, -49.1785)">t48</text><text x="368.356757612856" y="571.3898305084746" dominant-baseline="central" transform="matrix(1.1068, 0, 0, 1.09184, 0, 0) matrix(1, 0, 0, 1, -35.5442, -48.0608)">t9</text><text x="474.11891920428525" y="558.1016949152543" dominant-baseline="central" transform="matrix(1.1068, 0, 0, 1.09184, 0, 0) matrix(1, 0, 0, 1, -45.7496, -46.9431)">t22</text><text x="474.11891920428525" y="544.8135593220338" dominant-baseline="central" transform="matrix(1.1068, 0, 0, 1.09184, 0, 0) matrix(1, 0, 0, 1, -45.7496, -45.8254)">t37</text><text x="474.11891920428525" y="531.5254237288135" dominant-baseline="central" transform="matrix(1.1068, 0, 0, 1.09184, 0, 0) matrix(1, 0, 0, 1, -45.7496, -44.7077)">t47</text><text x="421.2378384085706" y="518.2372881355932" dominant-baseline="central" transform="matrix(1.1068, 0, 0, 1.09184, 0, 0) matrix(1, 0, 0, 1, -40.6469, -43.5901)">t18</text><text x="315.4756768171412" y="504.94915254237293" dominant-baseline="central" transform="matrix(1.1068, 0, 0, 1.09184, 0, 0) matrix(1, 0, 0, 1, -30.4415, -42.4724)">t20</text><text x="315.4756768171412" y="491.66101694915255" dominant-baseline="central" transform="matrix(1.1068, 0, 0, 1.09184, 0, 0) matrix(1, 0, 0, 1, -30.4415, -41.3547)">t25</text><text x="315.4756768171412" y="478.3728813559321" dominant-baseline="central" transform="matrix(1.1068, 0, 0, 1.09184, 0, 0) matrix(1, 0, 0, 1, -30.4415, -40.237)">t50</text><text x="368.356757612856" y="465.08474576271186" dominant-baseline="central" transform="matrix(1.1068, 0, 0, 1.09184, 0, 0) matrix(1, 0, 0, 1, -35.5442, -39.1193)">t14</text><text x="368.356757612856" y="451.79661016949154" dominant-baseline="central" transform="matrix(1.1068, 0, 0, 1.09184, 0, 0) matrix(1, 0, 0, 1, -35.5442, -38.0016)">t24</text><text x="315.4756768171412" y="438.5084745762712" dominant-baseline="central" transform="matrix(1.1068, 0, 0, 1.09184, 0, 0) matrix(1, 0, 0, 1, -30.4415, -36.8839)">t55</text><text x="526.9999999999999" y="425.22033898305085" dominant-baseline="central" transform="matrix(1.1068, 0, 0, 1.09184, 0, 0) matrix(1, 0, 0, 1, -50.8523, -35.7662)">t21</text><text x="421.23783840857067" y="411.9322033898305" dominant-baseline="central" transform="matrix(1.1068, 0, 0, 1.09184, 0, 0) matrix(1, 0, 0, 1, -40.6469, -34.6485)">t58</text><text x="526.9999999999999" y="398.64406779661016" dominant-baseline="central" transform="matrix(1.1068, 0, 0, 1.09184, 0, 0) matrix(1, 0, 0, 1, -50.8523, -33.5308)">t11</text><text x="315.47567681714133" y="385.35593220338984" dominant-baseline="central" transform="matrix(1.1068, 0, 0, 1.09184, 0, 0) matrix(1, 0, 0, 1, -30.4415, -32.4131)">t10</text><text x="315.47567681714133" y="372.06779661016947" dominant-baseline="central" transform="matrix(1.1068, 0, 0, 1.09184, 0, 0) matrix(1, 0, 0, 1, -30.4415, -31.2954)">t60</text><text x="421.23783840857067" y="358.77966101694915" dominant-baseline="central" transform="matrix(1.1068, 0, 0, 1.09184, 0, 0) matrix(1, 0, 0, 1, -40.6469, -30.1777)">t3</text><text x="368.3567576128561" y="345.49152542372883" dominant-baseline="central" transform="matrix(1.1068, 0, 0, 1.09184, 0, 0) matrix(1, 0, 0, 1, -35.5442, -29.06)">t4</text><text x="421.23783840857067" y="332.20338983050846" dominant-baseline="central" transform="matrix(1.1068, 0, 0, 1.09184, 0, 0) matrix(1, 0, 0, 1, -40.6469, -27.9423)">t8</text><text x="368.3567576128561" y="318.91525423728814" dominant-baseline="central" transform="matrix(1.1068, 0, 0, 1.09184, 0, 0) matrix(1, 0, 0, 1, -35.5442, -26.8246)">t34</text><text x="527" y="305.62711864406776" dominant-baseline="central" transform="matrix(1.1068, 0, 0, 1.09184, 0, 0) matrix(1, 0, 0, 1, -50.8523, -25.707)">t16</text><text x="527" y="292.33898305084745" dominant-baseline="central" transform="matrix(1.1068, 0, 0, 1.09184, 0, 0) matrix(1, 0, 0, 1, -50.8523, -24.5893)">t56</text><text x="474.11891920428536" y="279.0508474576272" dominant-baseline="central" transform="matrix(1.1068, 0, 0, 1.09184, 0, 0) matrix(1, 0, 0, 1, -45.7496, -23.4716)">t57</text><text x="368.356757612856" y="265.76271186440675" dominant-baseline="central" transform="matrix(1.1068, 0, 0, 1.09184, 0, 0) matrix(1, 0, 0, 1, -35.5442, -22.3539)">t39</text><text x="368.356757612856" y="252.47457627118646" dominant-baseline="central" transform="matrix(1.1068, 0, 0, 1.09184, 0, 0) matrix(1, 0, 0, 1, -35.5442, -21.2362)">t49</text><text x="526.9999999999999" y="239.18644067796606" dominant-baseline="central" transform="matrix(1.1068, 0, 0, 1.09184, 0, 0) matrix(1, 0, 0, 1, -50.8523, -20.1185)">t31</text><text x="421.23783840857067" y="225.89830508474577" dominant-baseline="central" transform="matrix(1.1068, 0, 0, 1.09184, 0, 0) matrix(1, 0, 0, 1, -40.6469, -19.0008)">t28</text><text x="421.23783840857067" y="212.61016949152545" dominant-baseline="central" transform="matrix(1.1068, 0, 0, 1.09184, 0, 0) matrix(1, 0, 0, 1, -40.6469, -17.8831)">t53</text><text x="421.23783840857067" y="199.32203389830508" dominant-baseline="central" transform="matrix(1.1068, 0, 0, 1.09184, 0, 0) matrix(1, 0, 0, 1, -40.6469, -16.7654)">t43</text><text x="315.47567681714133" y="186.03389830508476" dominant-baseline="central" transform="matrix(1.1068, 0, 0, 1.09184, 0, 0) matrix(1, 0, 0, 1, -30.4415, -15.6477)">t5</text><text x="421.23783840857067" y="172.7457627118644" dominant-baseline="central" transform="matrix(1.1068, 0, 0, 1.09184, 0, 0) matrix(1, 0, 0, 1, -40.6469, -14.53)">t13</text><text x="368.356757612856" y="159.45762711864407" dominant-baseline="central" transform="matrix(1.1068, 0, 0, 1.09184, 0, 0) matrix(1, 0, 0, 1, -35.5442, -13.4123)">t29</text><text x="315.47567681714133" y="146.1694915254237" dominant-baseline="central" transform="matrix(1.1068, 0, 0, 1.09184, 0, 0) matrix(1, 0, 0, 1, -30.4415, -12.2946)">t15</text><text x="315.47567681714133" y="132.88135593220338" dominant-baseline="central" transform="matrix(1.1068, 0, 0, 1.09184, 0, 0) matrix(1, 0, 0, 1, -30.4415, -11.1769)">t40</text><text x="368.356757612856" y="119.59322033898309" dominant-baseline="central" transform="matrix(1.1068, 0, 0, 1.09184, 0, 0) matrix(1, 0, 0, 1, -35.5442, -10.0592)">t54</text><text x="368.356757612856" y="106.30508474576268" dominant-baseline="central" transform="matrix(1.1068, 0, 0, 1.09184, 0, 0) matrix(1, 0, 0, 1, -35.5442, -8.94155)">t59</text><text x="368.356757612856" y="93.01694915254238" dominant-baseline="central" transform="matrix(1.1068, 0, 0, 1.09184, 0, 0) matrix(1, 0, 0, 1, -35.5442, -7.82386)">t44</text><text x="526.9999999999999" y="79.72881355932199" dominant-baseline="central" transform="matrix(1.1068, 0, 0, 1.09184, 0, 0) matrix(1, 0, 0, 1, -50.8523, -6.70616)">t1</text><text x="474.11891920428525" y="66.44067796610169" dominant-baseline="central" transform="matrix(1.1068, 0, 0, 1.09184, 0, 0) matrix(1, 0, 0, 1, -45.7496, -5.58847)">t27</text><text x="421.2378384085706" y="53.152542372881385" dominant-baseline="central" transform="matrix(1.1068, 0, 0, 1.09184, 0, 0) matrix(1, 0, 0, 1, -40.6469, -4.47077)">t23</text><text x="474.11891920428525" y="39.864406779660996" dominant-baseline="central" transform="matrix(1.1068, 0, 0, 1.09184, 0, 0) matrix(1, 0, 0, 1, -45.7496, -3.35308)">t32</text><text x="474.11891920428525" y="26.576271186440692" dominant-baseline="central" transform="matrix(1.1068, 0, 0, 1.09184, 0, 0) matrix(1, 0, 0, 1, -45.7496, -2.23539)">t12</text><text x="368.356757612856" y="13.288135593220304" dominant-baseline="central" transform="matrix(1.1068, 0, 0, 1.09184, 0, 0) matrix(1, 0, 0, 1, -35.5442, -1.11769)">t19</text><text x="315.4756768171412" y="0" dominant-baseline="central" transform="matrix(1.1068, 0, 0, 1.09184, 0, 0) matrix(1, 0, 0, 1, -30.4415, -0)">t45</text></svg>