<svg xmlns="http://www.w3.org/2000/svg" version="1.1" width="527" height="784" preserveAspectRatio="none" style="stroke-width: 2px; font-size: 11px; font-family: sans-serif; shape-rendering: crispedges;" id="SVG" viewBox="-20 -46 583.2833251953125 856"><rect id="backgroundRect" x="-20" y="-46" width="583.2833251953125" height="856" fill="white"></rect><path d="M 471.63887277099576 784 H 452.5710002480905 V 777.3559322033899" fill="none" stroke="black" stroke-width="2" class="treeEdge" vector-effect="non-scaling-stroke" id="node#48"></path><path d="M 471.63887277099576 770.7118644067797 H 452.5710002480905 V 777.3559322033899" fill="none" stroke="black" stroke-width="2" class="treeEdge" vector-effect="non-scaling-stroke" id="node#49"></path><path d="M 471.63887277099576 757.4237288135593 H 452.5710002480905 V 767.3898305084746" fill="none" stroke="black" stroke-width="2" class="treeEdge" vector-effect="non-scaling-stroke" id="node#50"></path><path d="M 471.63887277099576 744.135593220339 H 385.7920250581341 V 755.7627118644068" fill="none" stroke="black" stroke-width="2" class="treeEdge" vector-effect="non-scaling-stroke" id="node#45"></path><path d="M 526.9999999999999 730.8474576271186 H 398.2020812355115 V 724.2033898305085" fill="none" stroke="black" stroke-width="2" class="treeEdge" vector-effect="non-scaling-stroke" id="node#41"></path><path d="M 526.9999999999999 717.5593220338983 H 398.2020812355115 V 724.2033898305085" fill="none" stroke="black" stroke-width="2" class="treeEdge" vector-effect="non-scaling-stroke" id="node#42"></path><path d="M 526.9999999999999 704.271186440678 H 383.59513924614646 V 714.2372881355932" fill="none" stroke="black" stroke-width="2" class="treeEdge" vector-effect="non-scaling-stroke" id="node#43"></path><path d="M 416.2777455419916 690.9830508474577 H 320.4020749302233 V 712.9915254237287" fill="none" stroke="black" stroke-width="2" class="treeEdge" vector-effect="non-scaling-stroke" id="node#51"></path><path d="M 305.55549108398327 677.6949152542373 H 297.59917529563586 V 695.3432203389831" fill="none" stroke="black" stroke-width="2" class="treeEdge" vector-effect="non-scaling-stroke" id="node#36"></path><path d="M 471.63887277099576 664.4067796610169 H 347.8121723141408 V 657.7627118644068" fill="none" stroke="black" stroke-width="2" class="treeEdge" vector-effect="non-scaling-stroke" id="node#27"></path><path d="M 360.9166183129875 651.1186440677966 H 347.8121723141408 V 657.7627118644068" fill="none" stroke="black" stroke-width="2" class="treeEdge" vector-effect="non-scaling-stroke" id="node#28"></path><path d="M 305.55549108398327 637.8305084745763 H 290.7864606088084 V 647.7966101694915" fill="none" stroke="black" stroke-width="2" class="treeEdge" vector-effect="non-scaling-stroke" id="node#25"></path><path d="M 305.55549108398327 624.542372881356 H 290.7864606088084 V 636.1694915254237" fill="none" stroke="black" stroke-width="2" class="treeEdge" vector-effect="non-scaling-stroke" id="node#29"></path><path d="M 471.63887277099576 611.2542372881356 H 453.4947022051728 V 604.6101694915254" fill="none" stroke="black" stroke-width="2" class="treeEdge" vector-effect="non-scaling-stroke" id="node#31"></path><path d="M 471.63887277099576 597.9661016949152 H 453.4947022051728 V 604.6101694915254" fill="none" stroke="black" stroke-width="2" class="treeEdge" vector-effect="non-scaling-stroke" id="node#32"></path><path d="M 416.27774554199164 584.6779661016949 H 290.7864606088084 V 602.5338983050848" fill="none" stroke="black" stroke-width="2" class="treeEdge" vector-effect="non-scaling-stroke" id="node#33"></path><path d="M 305.55549108398327 571.3898305084746 H 290.7864606088084 V 586.9618644067797" fill="none" stroke="black" stroke-width="2" class="treeEdge" vector-effect="non-scaling-stroke" id="node#34"></path><path d="M 360.9166183129875 558.1016949152543 H 355.36073788908027 V 551.457627118644" fill="none" stroke="black" stroke-width="2" class="treeEdge" vector-effect="non-scaling-stroke" id="node#13"></path><path d="M 360.9166183129875 544.8135593220338 H 355.36073788908027 V 551.457627118644" fill="none" stroke="black" stroke-width="2" class="treeEdge" vector-effect="non-scaling-stroke" id="node#14"></path><path d="M 305.55549108398327 531.5254237288135 H 280.07492944012347 V 541.4915254237288" fill="none" stroke="black" stroke-width="2" class="treeEdge" vector-effect="non-scaling-stroke" id="node#15"></path><path d="M 526.9999999999999 518.2372881355932 H 246.4133503193236 V 529.8644067796611" fill="none" stroke="black" stroke-width="2" class="treeEdge" vector-effect="non-scaling-stroke" id="node#10"></path><path d="M 416.2777455419916 504.94915254237293 H 253.8030319618999 V 498.3050847457627" fill="none" stroke="black" stroke-width="2" class="treeEdge" vector-effect="non-scaling-stroke" id="node#17"></path><path d="M 526.9999999999999 491.66101694915255 H 253.8030319618999 V 498.3050847457627" fill="none" stroke="black" stroke-width="2" class="treeEdge" vector-effect="non-scaling-stroke" id="node#18"></path><path d="M 526.9999999999999 478.3728813559321 H 393.1474019316887 V 471.728813559322" fill="none" stroke="black" stroke-width="2" class="treeEdge" vector-effect="non-scaling-stroke" id="node#57"></path><path d="M 416.2777455419916 465.08474576271186 H 393.1474019316887 V 471.728813559322" fill="none" stroke="black" stroke-width="2" class="treeEdge" vector-effect="non-scaling-stroke" id="node#58"></path><path d="M 305.55549108398327 451.79661016949154 H 296.50582601338715 V 461.76271186440675" fill="none" stroke="black" stroke-width="2" class="treeEdge" vector-effect="non-scaling-stroke" id="node#55"></path><path d="M 416.2777455419916 438.5084745762712 H 296.50582601338715 V 450.135593220339" fill="none" stroke="black" stroke-width="2" class="treeEdge" vector-effect="non-scaling-stroke" id="node#59"></path><path d="M 471.63887277099576 425.22033898305085 H 406.49551577252305 V 418.5762711864407" fill="none" stroke="black" stroke-width="2" class="treeEdge" vector-effect="non-scaling-stroke" id="node#62"></path><path d="M 526.9999999999999 411.9322033898305 H 406.49551577252305 V 418.5762711864407" fill="none" stroke="black" stroke-width="2" class="treeEdge" vector-effect="non-scaling-stroke" id="node#63"></path><path d="M 526.9999999999999 398.64406779661016 H 362.2328446152762 V 408.61016949152537" fill="none" stroke="black" stroke-width="2" class="treeEdge" vector-effect="non-scaling-stroke" id="node#64"></path><path d="M 305.55549108398327 385.35593220338984 H 92.4342405346604 V 378.7118644067797" fill="none" stroke="black" stroke-width="2" class="treeEdge" vector-effect="non-scaling-stroke" id="node#4"></path><path d="M 305.55549108398327 372.06779661016947 H 92.4342405346604 V 378.7118644067797" fill="none" stroke="black" stroke-width="2" class="treeEdge" vector-effect="non-scaling-stroke" id="node#5"></path><path d="M 360.9166183129875 358.77966101694915 H 360.82874091053225 V 352.135593220339" fill="none" stroke="black" stroke-width="2" class="treeEdge" vector-effect="non-scaling-stroke" id="node#81"></path><path d="M 416.2777455419916 345.49152542372883 H 360.82874091053225 V 352.135593220339" fill="none" stroke="black" stroke-width="2" class="treeEdge" vector-effect="non-scaling-stroke" id="node#82"></path><path d="M 360.9166183129875 332.20338983050846 H 360.82874091053225 V 342.16949152542367" fill="none" stroke="black" stroke-width="2" class="treeEdge" vector-effect="non-scaling-stroke" id="node#83"></path><path d="M 360.9166183129875 318.91525423728814 H 360.82874091053225 V 330.5423728813559" fill="none" stroke="black" stroke-width="2" class="treeEdge" vector-effect="non-scaling-stroke" id="node#84"></path><path d="M 360.9166183129875 305.62711864406776 H 360.82874091053225 V 318.08474576271186" fill="none" stroke="black" stroke-width="2" class="treeEdge" vector-effect="non-scaling-stroke" id="node#85"></path><path d="M 526.9999999999999 292.33898305084745 H 418.15616450678084 V 285.6949152542373" fill="none" stroke="black" stroke-width="2" class="treeEdge" vector-effect="non-scaling-stroke" id="node#88"></path><path d="M 471.63887277099576 279.0508474576272 H 418.15616450678084 V 285.6949152542373" fill="none" stroke="black" stroke-width="2" class="treeEdge" vector-effect="non-scaling-stroke" id="node#89"></path><path d="M 526.9999999999999 265.76271186440675 H 418.15616450678084 V 275.728813559322" fill="none" stroke="black" stroke-width="2" class="treeEdge" vector-effect="non-scaling-stroke" id="node#90"></path><path d="M 416.2777455419916 252.47457627118646 H 360.82874091053225 V 274.6906779661017" fill="none" stroke="black" stroke-width="2" class="treeEdge" vector-effect="non-scaling-stroke" id="node#91"></path><path d="M 527 239.18644067796606 H 325.3906185420361 V 256.9385593220338" fill="none" stroke="black" stroke-width="2" class="treeEdge" vector-effect="non-scaling-stroke" id="node#92"></path><path d="M 305.55549108398327 225.89830508474577 H 263.97279885484085 V 241.41843220338984" fill="none" stroke="black" stroke-width="2" class="treeEdge" vector-effect="non-scaling-stroke" id="node#93"></path><path d="M 305.55549108398327 212.61016949152545 H 263.97279885484085 V 227.0143008474577" fill="none" stroke="black" stroke-width="2" class="treeEdge" vector-effect="non-scaling-stroke" id="node#94"></path><path d="M 416.27774554199164 199.32203389830508 H 401.32028429046153 V 192.67796610169492" fill="none" stroke="black" stroke-width="2" class="treeEdge" vector-effect="non-scaling-stroke" id="node#103"></path><path d="M 416.27774554199164 186.03389830508476 H 401.32028429046153 V 192.67796610169492" fill="none" stroke="black" stroke-width="2" class="treeEdge" vector-effect="non-scaling-stroke" id="node#104"></path><path d="M 416.2777455419916 172.7457627118644 H 383.94223714294003 V 182.71186440677968" fill="none" stroke="black" stroke-width="2" class="treeEdge" vector-effect="non-scaling-stroke" id="node#101"></path><path d="M 360.9166183129875 159.45762711864407 H 286.14932455915624 V 152.81355932203383" fill="none" stroke="black" stroke-width="2" class="treeEdge" vector-effect="non-scaling-stroke" id="node#98"></path><path d="M 416.2777455419916 146.1694915254237 H 286.14932455915624 V 152.81355932203383" fill="none" stroke="black" stroke-width="2" class="treeEdge" vector-effect="non-scaling-stroke" id="node#99"></path><path d="M 305.55549108398327 132.88135593220338 H 286.14932455915624 V 150.32203389830508" fill="none" stroke="black" stroke-width="2" class="treeEdge" vector-effect="non-scaling-stroke" id="node#105"></path><path d="M 360.9166183129875 119.59322033898309 H 250.68866724703133 V 112.94915254237293" fill="none" stroke="black" stroke-width="2" class="treeEdge" vector-effect="non-scaling-stroke" id="node#69"></path><path d="M 360.9166183129875 106.30508474576268 H 250.68866724703133 V 112.94915254237293" fill="none" stroke="black" stroke-width="2" class="treeEdge" vector-effect="non-scaling-stroke" id="node#70"></path><path d="M 360.9166183129875 93.01694915254238 H 95.93773797062903 V 102.9830508474577" fill="none" stroke="black" stroke-width="2" class="treeEdge" vector-effect="non-scaling-stroke" id="node#67"></path><path d="M 527 79.72881355932199 H 465.839938923286 V 73.08474576271185" fill="none" stroke="black" stroke-width="2" class="treeEdge" vector-effect="non-scaling-stroke" id="node#112"></path><path d="M 471.63887277099576 66.44067796610169 H 465.839938923286 V 73.08474576271185" fill="none" stroke="black" stroke-width="2" class="treeEdge" vector-effect="non-scaling-stroke" id="node#113"></path><path d="M 416.2777455419917 53.152542372881385 H 351.67976635476447 V 63.118644067796616" fill="none" stroke="black" stroke-width="2" class="treeEdge" vector-effect="non-scaling-stroke" id="node#110"></path><path d="M 471.63887277099576 39.864406779660996 H 347.5494472781575 V 51.49152542372876" fill="none" stroke="black" stroke-width="2" class="treeEdge" vector-effect="non-scaling-stroke" id="node#114"></path><path d="M 305.55549108398327 26.576271186440692 H 271.9486285740642 V 39.033898305084776" fill="none" stroke="black" stroke-width="2" class="treeEdge" vector-effect="non-scaling-stroke" id="node#115"></path><path d="M 360.9166183129874 13.288135593220304 H 342.86812321710204 V 6.644067796610152" fill="none" stroke="black" stroke-width="2" class="treeEdge" vector-effect="non-scaling-stroke" id="node#117"></path><path d="M 471.6388727709957 0 H 342.86812321710204 V 6.644067796610152" fill="none" stroke="black" stroke-width="2" class="treeEdge" vector-effect="non-scaling-stroke" id="node#118"></path><path d="M 452.5710002480905 777.3559322033899 H 452.5710002480905 V 767.3898305084746" fill="none" stroke="black" stroke-width="2" class="treeEdge" vector-effect="non-scaling-stroke" id="node#47"></path><path d="M 452.5710002480905 767.3898305084746 H 385.7920250581341 V 755.7627118644068" fill="none" stroke="black" stroke-width="2" class="treeEdge" vector-effect="non-scaling-stroke" id="node#46"></path><path d="M 385.7920250581341 755.7627118644068 H 330.32121290206356 V 735" fill="none" stroke="black" stroke-width="2" class="treeEdge" vector-effect="non-scaling-stroke" id="node#44"></path><path d="M 398.2020812355115 724.2033898305085 H 383.59513924614646 V 714.2372881355932" fill="none" stroke="black" stroke-width="2" class="treeEdge" vector-effect="non-scaling-stroke" id="node#40"></path><path d="M 383.59513924614646 714.2372881355932 H 330.32121290206356 V 735" fill="none" stroke="black" stroke-width="2" class="treeEdge" vector-effect="non-scaling-stroke" id="node#39"></path><path d="M 330.32121290206356 735 H 320.4020749302233 V 712.9915254237287" fill="none" stroke="black" stroke-width="2" class="treeEdge" vector-effect="non-scaling-stroke" id="node#38"></path><path d="M 320.4020749302233 712.9915254237287 H 297.59917529563586 V 695.3432203389831" fill="none" stroke="black" stroke-width="2" class="treeEdge" vector-effect="non-scaling-stroke" id="node#37"></path><path d="M 297.59917529563586 695.3432203389831 H 261.0982022067218 V 641.1525423728814" fill="none" stroke="black" stroke-width="2" class="treeEdge" vector-effect="non-scaling-stroke" id="node#35"></path><path d="M 347.8121723141408 657.7627118644068 H 290.7864606088084 V 647.7966101694915" fill="none" stroke="black" stroke-width="2" class="treeEdge" vector-effect="non-scaling-stroke" id="node#26"></path><path d="M 290.7864606088084 647.7966101694915 H 290.7864606088084 V 636.1694915254237" fill="none" stroke="black" stroke-width="2" class="treeEdge" vector-effect="non-scaling-stroke" id="node#24"></path><path d="M 290.7864606088084 636.1694915254237 H 290.7864606088084 V 620.3898305084746" fill="none" stroke="black" stroke-width="2" class="treeEdge" vector-effect="non-scaling-stroke" id="node#23"></path><path d="M 453.4947022051728 604.6101694915254 H 290.7864606088084 V 620.3898305084746" fill="none" stroke="black" stroke-width="2" class="treeEdge" vector-effect="non-scaling-stroke" id="node#30"></path><path d="M 290.7864606088084 620.3898305084746 H 290.7864606088084 V 602.5338983050848" fill="none" stroke="black" stroke-width="2" class="treeEdge" vector-effect="non-scaling-stroke" id="node#22"></path><path d="M 290.7864606088084 602.5338983050848 H 290.7864606088084 V 586.9618644067797" fill="none" stroke="black" stroke-width="2" class="treeEdge" vector-effect="non-scaling-stroke" id="node#21"></path><path d="M 290.7864606088084 586.9618644067797 H 261.0982022067218 V 641.1525423728814" fill="none" stroke="black" stroke-width="2" class="treeEdge" vector-effect="non-scaling-stroke" id="node#20"></path><path d="M 261.0982022067218 641.1525423728814 H 246.4133503193236 V 577.6186440677966" fill="none" stroke="black" stroke-width="2" class="treeEdge" vector-effect="non-scaling-stroke" id="node#19"></path><path d="M 355.36073788908027 551.457627118644 H 280.07492944012347 V 541.4915254237288" fill="none" stroke="black" stroke-width="2" class="treeEdge" vector-effect="non-scaling-stroke" id="node#12"></path><path d="M 280.07492944012347 541.4915254237288 H 246.4133503193236 V 529.8644067796611" fill="none" stroke="black" stroke-width="2" class="treeEdge" vector-effect="non-scaling-stroke" id="node#11"></path><path d="M 246.4133503193236 529.8644067796611 H 246.4133503193236 V 514.0847457627118" fill="none" stroke="black" stroke-width="2" class="treeEdge" vector-effect="non-scaling-stroke" id="node#9"></path><path d="M 253.8030319618999 498.3050847457627 H 246.4133503193236 V 514.0847457627118" fill="none" stroke="black" stroke-width="2" class="treeEdge" vector-effect="non-scaling-stroke" id="node#16"></path><path d="M 246.4133503193236 514.0847457627118 H 246.4133503193236 V 577.6186440677966" fill="none" stroke="black" stroke-width="2" class="treeEdge" vector-effect="non-scaling-stroke" id="node#8"></path><path d="M 246.4133503193236 577.6186440677966 H 246.4133503193236 V 503.4957627118645" fill="none" stroke="black" stroke-width="2" class="treeEdge" vector-effect="non-scaling-stroke" id="node#7"></path><path d="M 393.1474019316887 471.728813559322 H 296.50582601338715 V 461.76271186440675" fill="none" stroke="black" stroke-width="2" class="treeEdge" vector-effect="non-scaling-stroke" id="node#56"></path><path d="M 296.50582601338715 461.76271186440675 H 296.50582601338715 V 450.135593220339" fill="none" stroke="black" stroke-width="2" class="treeEdge" vector-effect="non-scaling-stroke" id="node#54"></path><path d="M 296.50582601338715 450.135593220339 H 296.50582601338715 V 429.37288135593224" fill="none" stroke="black" stroke-width="2" class="treeEdge" vector-effect="non-scaling-stroke" id="node#53"></path><path d="M 406.49551577252305 418.5762711864407 H 362.2328446152762 V 408.61016949152537" fill="none" stroke="black" stroke-width="2" class="treeEdge" vector-effect="non-scaling-stroke" id="node#61"></path><path d="M 362.2328446152762 408.61016949152537 H 296.50582601338715 V 429.37288135593224" fill="none" stroke="black" stroke-width="2" class="treeEdge" vector-effect="non-scaling-stroke" id="node#60"></path><path d="M 296.50582601338715 429.37288135593224 H 246.4133503193236 V 503.4957627118645" fill="none" stroke="black" stroke-width="2" class="treeEdge" vector-effect="non-scaling-stroke" id="node#52"></path><path d="M 246.4133503193236 503.4957627118645 H 64.61926578751729 V 441.1038135593221" fill="none" stroke="black" stroke-width="2" class="treeEdge" vector-effect="non-scaling-stroke" id="node#6"></path><path d="M 92.4342405346604 378.7118644067797 H 64.61926578751729 V 441.1038135593221" fill="none" stroke="black" stroke-width="2" class="treeEdge" vector-effect="non-scaling-stroke" id="node#3"></path><path d="M 64.61926578751729 441.1038135593221 H 5.2178217821782225 V 293.46471133474586" fill="none" stroke="black" stroke-width="2" class="treeEdge" vector-effect="non-scaling-stroke" id="node#2"></path><path d="M 360.82874091053225 352.135593220339 H 360.82874091053225 V 342.16949152542367" fill="none" stroke="black" stroke-width="2" class="treeEdge" vector-effect="non-scaling-stroke" id="node#80"></path><path d="M 360.82874091053225 342.16949152542367 H 360.82874091053225 V 330.5423728813559" fill="none" stroke="black" stroke-width="2" class="treeEdge" vector-effect="non-scaling-stroke" id="node#79"></path><path d="M 360.82874091053225 330.5423728813559 H 360.82874091053225 V 318.08474576271186" fill="none" stroke="black" stroke-width="2" class="treeEdge" vector-effect="non-scaling-stroke" id="node#78"></path><path d="M 360.82874091053225 318.08474576271186 H 360.82874091053225 V 296.9067796610169" fill="none" stroke="black" stroke-width="2" class="treeEdge" vector-effect="non-scaling-stroke" id="node#77"></path><path d="M 418.15616450678084 285.6949152542373 H 418.15616450678084 V 275.728813559322" fill="none" stroke="black" stroke-width="2" class="treeEdge" vector-effect="non-scaling-stroke" id="node#87"></path><path d="M 418.15616450678084 275.728813559322 H 360.82874091053225 V 296.9067796610169" fill="none" stroke="black" stroke-width="2" class="treeEdge" vector-effect="non-scaling-stroke" id="node#86"></path><path d="M 360.82874091053225 296.9067796610169 H 360.82874091053225 V 274.6906779661017" fill="none" stroke="black" stroke-width="2" class="treeEdge" vector-effect="non-scaling-stroke" id="node#76"></path><path d="M 360.82874091053225 274.6906779661017 H 325.3906185420361 V 256.9385593220338" fill="none" stroke="black" stroke-width="2" class="treeEdge" vector-effect="non-scaling-stroke" id="node#75"></path><path d="M 325.3906185420361 256.9385593220338 H 263.97279885484085 V 241.41843220338984" fill="none" stroke="black" stroke-width="2" class="treeEdge" vector-effect="non-scaling-stroke" id="node#74"></path><path d="M 263.97279885484085 241.41843220338984 H 263.97279885484085 V 227.0143008474577" fill="none" stroke="black" stroke-width="2" class="treeEdge" vector-effect="non-scaling-stroke" id="node#73"></path><path d="M 263.97279885484085 227.0143008474577 H 263.97279885484085 V 188.66816737288138" fill="none" stroke="black" stroke-width="2" class="treeEdge" vector-effect="non-scaling-stroke" id="node#72"></path><path d="M 401.32028429046153 192.67796610169492 H 383.94223714294003 V 182.71186440677968" fill="none" stroke="black" stroke-width="2" class="treeEdge" vector-effect="non-scaling-stroke" id="node#102"></path><path d="M 383.94223714294003 182.71186440677968 H 286.14932455915624 V 167.76271186440675" fill="none" stroke="black" stroke-width="2" class="treeEdge" vector-effect="non-scaling-stroke" id="node#100"></path><path d="M 286.14932455915624 152.81355932203383 H 286.14932455915624 V 167.76271186440675" fill="none" stroke="black" stroke-width="2" class="treeEdge" vector-effect="non-scaling-stroke" id="node#97"></path><path d="M 286.14932455915624 167.76271186440675 H 286.14932455915624 V 150.32203389830508" fill="none" stroke="black" stroke-width="2" class="treeEdge" vector-effect="non-scaling-stroke" id="node#96"></path><path d="M 286.14932455915624 150.32203389830508 H 263.97279885484085 V 188.66816737288138" fill="none" stroke="black" stroke-width="2" class="treeEdge" vector-effect="non-scaling-stroke" id="node#95"></path><path d="M 263.97279885484085 188.66816737288138 H 95.93773797062903 V 145.82560911016955" fill="none" stroke="black" stroke-width="2" class="treeEdge" vector-effect="non-scaling-stroke" id="node#71"></path><path d="M 250.68866724703133 112.94915254237293 H 95.93773797062903 V 102.9830508474577" fill="none" stroke="black" stroke-width="2" class="treeEdge" vector-effect="non-scaling-stroke" id="node#68"></path><path d="M 95.93773797062903 102.9830508474577 H 95.93773797062903 V 145.82560911016955" fill="none" stroke="black" stroke-width="2" class="treeEdge" vector-effect="non-scaling-stroke" id="node#66"></path><path d="M 95.93773797062903 145.82560911016955 H 5.2178217821782225 V 293.46471133474586" fill="none" stroke="black" stroke-width="2" class="treeEdge" vector-effect="non-scaling-stroke" id="node#65"></path><path d="M 5.2178217821782225 293.46471133474586 H 5.2178217821782225 V 158.15184719279662" fill="none" stroke="black" stroke-width="2" class="treeEdge" vector-effect="non-scaling-stroke" id="node#1"></path><path d="M 465.839938923286 73.08474576271185 H 351.67976635476447 V 63.118644067796616" fill="none" stroke="black" stroke-width="2" class="treeEdge" vector-effect="non-scaling-stroke" id="node#111"></path><path d="M 351.67976635476447 63.118644067796616 H 347.5494472781575 V 51.49152542372876" fill="none" stroke="black" stroke-width="2" class="treeEdge" vector-effect="non-scaling-stroke" id="node#109"></path><path d="M 347.5494472781575 51.49152542372876 H 271.9486285740642 V 39.033898305084776" fill="none" stroke="black" stroke-width="2" class="treeEdge" vector-effect="non-scaling-stroke" id="node#108"></path><path d="M 271.9486285740642 39.033898305084776 H 271.9486285740642 V 22.83898305084746" fill="none" stroke="black" stroke-width="2" class="treeEdge" vector-effect="non-scaling-stroke" id="node#107"></path><path d="M 342.86812321710204 6.644067796610152 H 271.9486285740642 V 22.83898305084746" fill="none" stroke="black" stroke-width="2" class="treeEdge" vector-effect="non-scaling-stroke" id="node#116"></path><path d="M 271.9486285740642 22.83898305084746 H 5.2178217821782225 V 158.15184719279662" fill="none" stroke="black" stroke-width="2" class="treeEdge" vector-effect="non-scaling-stroke" id="node#106"></path><path d="M 5.2178217821782225 158.15184719279662 H 0 V 158.15184719279662" fill="none" stroke="black" stroke-width="2" class="treeEdge" vector-effect="non-scaling-stroke" id="node#0"></path><text x="471.63887277099576" y="784" dominant-baseline="central" transform="matrix(1.1068, 0, 0, 1.09184, 0, 0) matrix(1, 0, 0, 1, -45.5103, -65.9439)">t17</text><text x="471.63887277099576" y="770.7118644067797" dominant-baseline="central" transform="matrix(1.1068, 0, 0, 1.09184, 0, 0) matrix(1, 0, 0, 1, -45.5103, -64.8262)">t52</text><text x="471.63887277099576" y="757.4237288135593" dominant-baseline="central" transform="matrix(1.1068, 0, 0, 1.09184, 0, 0) matrix(1, 0, 0, 1, -45.5103, -63.7085)">t42</text><text x="471.63887277099576" y="744.135593220339" dominant-baseline="central" transform="matrix(1.1068, 0, 0, 1.09184, 0, 0) matrix(1, 0, 0, 1, -45.5103, -62.5908)">t7</text><text x="526.9999999999999" y="730.8474576271186" dominant-baseline="central" transform="matrix(1.1068, 0, 0, 1.09184, 0, 0) matrix(1, 0, 0, 1, -50.8523, -61.4732)">t51</text><text x="526.9999999999999" y="717.5593220338983" dominant-baseline="central" transform="matrix(1.1068, 0, 0, 1.09184, 0, 0) matrix(1, 0, 0, 1, -50.8523, -60.3555)">t36</text><text x="526.9999999999999" y="704.271186440678" dominant-baseline="central" transform="matrix(1.1068, 0, 0, 1.09184, 0, 0) matrix(1, 0, 0, 1, -50.8523, -59.2378)">t6</text><text x="416.2777455419916" y="690.9830508474577" dominant-baseline="central" transform="matrix(1.1068, 0, 0, 1.09184, 0, 0) matrix(1, 0, 0, 1, -40.1683, -58.1201)">t33</text><text x="305.55549108398327" y="677.6949152542373" dominant-baseline="central" transform="matrix(1.1068, 0, 0, 1.09184, 0, 0) matrix(1, 0, 0, 1, -29.4843, -57.0024)">t30</text><text x="471.63887277099576" y="664.4067796610169" dominant-baseline="central" transform="matrix(1.1068, 0, 0, 1.09184, 0, 0) matrix(1, 0, 0, 1, -45.5103, -55.8847)">t22</text><text x="360.9166183129875" y="651.1186440677966" dominant-baseline="central" transform="matrix(1.1068, 0, 0, 1.09184, 0, 0) matrix(1, 0, 0, 1, -34.8263, -54.767)">t9</text><text x="305.55549108398327" y="637.8305084745763" dominant-baseline="central" transform="matrix(1.1068, 0, 0, 1.09184, 0, 0) matrix(1, 0, 0, 1, -29.4843, -53.6493)">t50</text><text x="305.55549108398327" y="624.542372881356" dominant-baseline="central" transform="matrix(1.1068, 0, 0, 1.09184, 0, 0) matrix(1, 0, 0, 1, -29.4843, -52.5316)">t25</text><text x="471.63887277099576" y="611.2542372881356" dominant-baseline="central" transform="matrix(1.1068, 0, 0, 1.09184, 0, 0) matrix(1, 0, 0, 1, -45.5103, -51.4139)">t47</text><text x="471.63887277099576" y="597.9661016949152" dominant-baseline="central" transform="matrix(1.1068, 0, 0, 1.09184, 0, 0) matrix(1, 0, 0, 1, -45.5103, -50.2962)">t37</text><text x="416.27774554199164" y="584.6779661016949" dominant-baseline="central" transform="matrix(1.1068, 0, 0, 1.09184, 0, 0) matrix(1, 0, 0, 1, -40.1683, -49.1785)">t18</text><text x="305.55549108398327" y="571.3898305084746" dominant-baseline="central" transform="matrix(1.1068, 0, 0, 1.09184, 0, 0) matrix(1, 0, 0, 1, -29.4843, -48.0608)">t20</text><text x="360.9166183129875" y="558.1016949152543" dominant-baseline="central" transform="matrix(1.1068, 0, 0, 1.09184, 0, 0) matrix(1, 0, 0, 1, -34.8263, -46.9431)">t14</text><text x="360.9166183129875" y="544.8135593220338" dominant-baseline="central" transform="matrix(1.1068, 0, 0, 1.09184, 0, 0) matrix(1, 0, 0, 1, -34.8263, -45.8254)">t24</text><text x="305.55549108398327" y="531.5254237288135" dominant-baseline="central" transform="matrix(1.1068, 0, 0, 1.09184, 0, 0) matrix(1, 0, 0, 1, -29.4843, -44.7077)">t55</text><text x="526.9999999999999" y="518.2372881355932" dominant-baseline="central" transform="matrix(1.1068, 0, 0, 1.09184, 0, 0) matrix(1, 0, 0, 1, -50.8523, -43.5901)">t11</text><text x="416.2777455419916" y="504.94915254237293" dominant-baseline="central" transform="matrix(1.1068, 0, 0, 1.09184, 0, 0) matrix(1, 0, 0, 1, -40.1683, -42.4724)">t58</text><text x="526.9999999999999" y="491.66101694915255" dominant-baseline="central" transform="matrix(1.1068, 0, 0, 1.09184, 0, 0) matrix(1, 0, 0, 1, -50.8523, -41.3547)">t21</text><text x="526.9999999999999" y="478.3728813559321" dominant-baseline="central" transform="matrix(1.1068, 0, 0, 1.09184, 0, 0) matrix(1, 0, 0, 1, -50.8523, -40.237)">t26</text><text x="416.2777455419916" y="465.08474576271186" dominant-baseline="central" transform="matrix(1.1068, 0, 0, 1.09184, 0, 0) matrix(1, 0, 0, 1, -40.1683, -39.1193)">t38</text><text x="305.55549108398327" y="451.79661016949154" dominant-baseline="central" transform="matrix(1.1068, 0, 0, 1.09184, 0, 0) matrix(1, 0, 0, 1, -29.4843, -38.0016)">t35</text><text x="416.2777455419916" y="438.5084745762712" dominant-baseline="central" transform="matrix(1.1068, 0, 0, 1.09184, 0, 0) matrix(1, 0, 0, 1, -40.1683, -36.8839)">t48</text><text x="471.63887277099576" y="425.22033898305085" dominant-baseline="central" transform="matrix(1.1068, 0, 0, 1.09184, 0, 0) matrix(1, 0, 0, 1, -45.5103, -35.7662)">t2</text><text x="526.9999999999999" y="411.9322033898305" dominant-baseline="central" transform="matrix(1.1068, 0, 0, 1.09184, 0, 0) matrix(1, 0, 0, 1, -50.8523, -34.6485)">t41</text><text x="526.9999999999999" y="398.64406779661016" dominant-baseline="central" transform="matrix(1.1068, 0, 0, 1.09184, 0, 0) matrix(1, 0, 0, 1, -50.8523, -33.5308)">t46</text><text x="305.55549108398327" y="385.35593220338984" dominant-baseline="central" transform="matrix(1.1068, 0, 0, 1.09184, 0, 0) matrix(1, 0, 0, 1, -29.4843, -32.4131)">t10</text><text x="305.55549108398327" y="372.06779661016947" dominant-baseline="central" transform="matrix(1.1068, 0, 0, 1.09184, 0, 0) matrix(1, 0, 0, 1, -29.4843, -31.2954)">t60</text><text x="360.9166183129875" y="358.77966101694915" dominant-baseline="central" transform="matrix(1.1068, 0, 0, 1.09184, 0, 0) matrix(1, 0, 0, 1, -34.8263, -30.1777)">t39</text><text x="416.2777455419916" y="345.49152542372883" dominant-baseline="central" transform="matrix(1.1068, 0, 0, 1.09184, 0, 0) matrix(1, 0, 0, 1, -40.1683, -29.06)">t8</text><text x="360.9166183129875" y="332.20338983050846" dominant-baseline="central" transform="matrix(1.1068, 0, 0, 1.09184, 0, 0) matrix(1, 0, 0, 1, -34.8263, -27.9423)">t34</text><text x="360.9166183129875" y="318.91525423728814" dominant-baseline="central" transform="matrix(1.1068, 0, 0, 1.09184, 0, 0) matrix(1, 0, 0, 1, -34.8263, -26.8246)">t49</text><text x="360.9166183129875" y="305.62711864406776" dominant-baseline="central" transform="matrix(1.1068, 0, 0, 1.09184, 0, 0) matrix(1, 0, 0, 1, -34.8263, -25.707)">t4</text><text x="526.9999999999999" y="292.33898305084745" dominant-baseline="central" transform="matrix(1.1068, 0, 0, 1.09184, 0, 0) matrix(1, 0, 0, 1, -50.8523, -24.5893)">t16</text><text x="471.63887277099576" y="279.0508474576272" dominant-baseline="central" transform="matrix(1.1068, 0, 0, 1.09184, 0, 0) matrix(1, 0, 0, 1, -45.5103, -23.4716)">t57</text><text x="526.9999999999999" y="265.76271186440675" dominant-baseline="central" transform="matrix(1.1068, 0, 0, 1.09184, 0, 0) matrix(1, 0, 0, 1, -50.8523, -22.3539)">t56</text><text x="416.2777455419916" y="252.47457627118646" dominant-baseline="central" transform="matrix(1.1068, 0, 0, 1.09184, 0, 0) matrix(1, 0, 0, 1, -40.1683, -21.2362)">t3</text><text x="527" y="239.18644067796606" dominant-baseline="central" transform="matrix(1.1068, 0, 0, 1.09184, 0, 0) matrix(1, 0, 0, 1, -50.8523, -20.1185)">t31</text><text x="305.55549108398327" y="225.89830508474577" dominant-baseline="central" transform="matrix(1.1068, 0, 0, 1.09184, 0, 0) matrix(1, 0, 0, 1, -29.4843, -19.0008)">t40</text><text x="305.55549108398327" y="212.61016949152545" dominant-baseline="central" transform="matrix(1.1068, 0, 0, 1.09184, 0, 0) matrix(1, 0, 0, 1, -29.4843, -17.8831)">t15</text><text x="416.27774554199164" y="199.32203389830508" dominant-baseline="central" transform="matrix(1.1068, 0, 0, 1.09184, 0, 0) matrix(1, 0, 0, 1, -40.1683, -16.7654)">t53</text><text x="416.27774554199164" y="186.03389830508476" dominant-baseline="central" transform="matrix(1.1068, 0, 0, 1.09184, 0, 0) matrix(1, 0, 0, 1, -40.1683, -15.6477)">t28</text><text x="416.2777455419916" y="172.7457627118644" dominant-baseline="central" transform="matrix(1.1068, 0, 0, 1.09184, 0, 0) matrix(1, 0, 0, 1, -40.1683, -14.53)">t43</text><text x="360.9166183129875" y="159.45762711864407" dominant-baseline="central" transform="matrix(1.1068, 0, 0, 1.09184, 0, 0) matrix(1, 0, 0, 1, -34.8263, -13.4123)">t29</text><text x="416.2777455419916" y="146.1694915254237" dominant-baseline="central" transform="matrix(1.1068, 0, 0, 1.09184, 0, 0) matrix(1, 0, 0, 1, -40.1683, -12.2946)">t13</text><text x="305.55549108398327" y="132.88135593220338" dominant-baseline="central" transform="matrix(1.1068, 0, 0, 1.09184, 0, 0) matrix(1, 0, 0, 1, -29.4843, -11.1769)">t5</text><text x="360.9166183129875" y="119.59322033898309" dominant-baseline="central" transform="matrix(1.1068, 0, 0, 1.09184, 0, 0) matrix(1, 0, 0, 1, -34.8263, -10.0592)">t54</text><text x="360.9166183129875" y="106.30508474576268" dominant-baseline="central" transform="matrix(1.1068, 0, 0, 1.09184, 0, 0) matrix(1, 0, 0, 1, -34.8263, -8.94155)">t59</text><text x="360.9166183129875" y="93.01694915254238" dominant-baseline="central" transform="matrix(1.1068, 0, 0, 1.09184, 0, 0) matrix(1, 0, 0, 1, -34.8263, -7.82386)">t44</text><text x="527" y="79.72881355932199" dominant-baseline="central" transform="matrix(1.1068, 0, 0, 1.09184, 0, 0) matrix(1, 0, 0, 1, -50.8523, -6.70616)">t1</text><text x="471.63887277099576" y="66.44067796610169" dominant-baseline="central" transform="matrix(1.1068, 0, 0, 1.09184, 0, 0) matrix(1, 0, 0, 1, -45.5103, -5.58847)">t27</text><text x="416.2777455419917" y="53.152542372881385" dominant-baseline="central" transform="matrix(1.1068, 0, 0, 1.09184, 0, 0) matrix(1, 0, 0, 1, -40.1683, -4.47077)">t23</text><text x="471.63887277099576" y="39.864406779660996" dominant-baseline="central" transform="matrix(1.1068, 0, 0, 1.09184, 0, 0) matrix(1, 0, 0, 1, -45.5103, -3.35308)">t32</text><text x="305.55549108398327" y="26.576271186440692" dominant-baseline="central" transform="matrix(1.1068, 0, 0, 1.09184, 0, 0) matrix(1, 0, 0, 1, -29.4843, -2.23539)">t45</text><text x="360.9166183129874" y="13.288135593220304" dominant-baseline="central" transform="matrix(1.1068, 0, 0, 1.09184, 0, 0) matrix(1, 0, 0, 1, -34.8263, -1.11769)">t19</text><text x="471.6388727709957" y="0" dominant-baseline="central" transform="matrix(1.1068, 0, 0, 1.09184, 0, 0) matrix(1, 0, 0, 1, -45.5103, -0)">t12</text></svg>