<svg xmlns="http://www.w3.org/2000/svg" version="1.1" width="874" height="590" preserveAspectRatio="none" viewBox="0 0 874 590" id="SVG" style="stroke-width: 3px; font-size: 11px; font-family: sans-serif; shape-rendering: crispEdges;"><rect x="0" y="0" width="874" height="587" fill="white"></rect><line x1="NaN" y1="508.121875" x2="NaN" y2="508.121875" vector-effect="non-scaling-stroke" stroke="black" stroke-opacity="0.4" stroke-width="9" class="errorBar"></line><path d="M 51.4881188118812 96.06732940673822 H 43.7 V 96.06732940673822" fill="none" stroke-opacity="0.10069444444444445" class="treeEdge trait_VGFyYW5ha2k=" vector-effect="non-scaling-stroke" id="node#0" stroke="#ff00ff"></path><path d="M 251.03557764131426 154.52997131347652 H 51.4881188118812 V 96.06732940673822" fill="none" stroke-opacity="0.0967741935483871" class="treeEdge trait_TGFrZXM=" vector-effect="non-scaling-stroke" id="node#1" stroke="orange"></path><path d="M 428.2962621921769 221.92713012695307 H 251.03557764131426 V 154.52997131347652" fill="none" stroke-opacity="0.25087108013937287" class="treeEdge trait_TmVsc29uK0NhbnRlcmJ1cnkrQ291bnRpZXM=" vector-effect="non-scaling-stroke" id="node#13" stroke="green"></path><path d="M 584.3593316203232 283.8050415039062 H 428.2962621921769 V 221.92713012695307" fill="none" stroke-opacity="0.09407665505226481" class="treeEdge trait_Q2FudGVyYnVyeQ==" vector-effect="non-scaling-stroke" id="node#14" stroke="purple"></path><path d="M 617.654847624152 351.1538330078125 H 584.3593316203232 V 283.8050415039062" fill="none" stroke-opacity="0.10357142857142858" class="treeEdge trait_Q2FudGVyYnVyeQ==" vector-effect="non-scaling-stroke" id="node#15" stroke="purple"></path><path d="M 700.8868807511699 440.53662109375 H 617.654847624152 V 351.1538330078125" fill="none" stroke-opacity="0.1951219512195122" class="treeEdge trait_Q2FudGVyYnVyeQ==" vector-effect="non-scaling-stroke" id="node#16" stroke="purple"></path><path d="M 726.8432694552779 470.63183593749994 H 700.8868807511699 V 440.53662109375" fill="none" stroke-opacity="0.43157894736842106" class="treeEdge trait_Q2FudGVyYnVyeQ==" vector-effect="non-scaling-stroke" id="node#17" stroke="purple"></path><path d="M 740.1562085988828 493.67617187499997 H 726.8432694552779 V 470.63183593749994" fill="none" stroke-opacity="0.3368421052631579" class="treeEdge trait_Q2FudGVyYnVyeQ==" vector-effect="non-scaling-stroke" id="node#18" stroke="purple"></path><path d="M 748.611154465918 520.50390625 H 740.1562085988828 V 493.67617187499997" fill="none" stroke-opacity="0.6" class="treeEdge trait_Q2FudGVyYnVyeQ==" vector-effect="non-scaling-stroke" id="node#24" stroke="purple"></path><path d="M 760.3241758818998 541.140625 H 748.611154465918 V 520.50390625" fill="none" stroke-opacity="0.75" class="treeEdge trait_U291dGhlcm4=" vector-effect="non-scaling-stroke" id="node#25" stroke="purple"></path><path d="M 763.776680254726 552.146875 H 760.3241758818998 V 541.140625" fill="none" stroke-opacity="0.875" class="treeEdge trait_U291dGhlcm4=" vector-effect="non-scaling-stroke" id="node#26" stroke="purple"></path><path d="M 772.4337233953119 557.65 H 763.776680254726 V 552.146875" fill="none" stroke-opacity="1.0" class="treeEdge trait_U291dGhlcm4=" vector-effect="non-scaling-stroke" id="node#27" stroke="purple"></path><path d="M 766.9226480220183 546.64375 H 763.776680254726 V 552.146875" fill="none" stroke-opacity="1.0" class="treeEdge trait_U291dGhlcm4=" vector-effect="non-scaling-stroke" id="node#28" stroke="purple"></path><path d="M 772.8869723841359 530.134375 H 760.3241758818998 V 541.140625" fill="none" stroke-opacity="0.49019607843137253" class="treeEdge trait_U291dGhlcm4=" vector-effect="non-scaling-stroke" id="node#29" stroke="purple"></path><path d="M 782.5373600869077 535.6374999999999 H 772.8869723841359 V 530.134375" fill="none" stroke-opacity="1.0" class="treeEdge trait_U291dGhlcm4=" vector-effect="non-scaling-stroke" id="node#30" stroke="purple"></path><path d="M 793.5595073600363 524.6312499999999 H 772.8869723841359 V 530.134375" fill="none" stroke-opacity="1.0" class="treeEdge trait_QmF5" vector-effect="non-scaling-stroke" id="node#31" stroke="red"></path><path d="M 753.4279012900336 499.8671875 H 748.611154465918 V 520.50390625" fill="none" stroke-opacity="0.4444444444444444" class="treeEdge trait_U291dGhlcm4=" vector-effect="non-scaling-stroke" id="node#32" stroke="purple"></path><path d="M 758.4097920394936 508.121875 H 753.4279012900336 V 499.8671875" fill="none" stroke-opacity="0.9" class="treeEdge trait_U291dGhlcm4=" vector-effect="non-scaling-stroke" id="node#34" stroke="purple"></path><path d="M 780.700332978823 513.6249999999999 H 758.4097920394936 V 508.121875" fill="none" stroke-opacity="1.0" class="treeEdge trait_Q2FudGVyYnVyeQ==" vector-effect="non-scaling-stroke" id="node#35" stroke="purple"></path><path d="M 763.2486001452431 502.61875 H 758.4097920394936 V 508.121875" fill="none" stroke-opacity="1.0" class="treeEdge trait_U291dGhlcm4=" vector-effect="non-scaling-stroke" id="node#36" stroke="purple"></path><path d="M 775.1892610097068 491.61249999999995 H 753.4279012900336 V 499.8671875" fill="none" stroke-opacity="1.0" class="treeEdge trait_Q2FudGVyYnVyeQ==" vector-effect="non-scaling-stroke" id="node#33" stroke="purple"></path><path d="M 752.4894798097822 466.8484375 H 740.1562085988828 V 493.67617187499997" fill="none" stroke-opacity="0.37037037037037035" class="treeEdge trait_Q2FwaXRhbA==" vector-effect="non-scaling-stroke" id="node#19" stroke="orange"></path><path d="M 754.7647839835736 475.103125 H 752.4894798097822 V 466.8484375" fill="none" stroke-opacity="0.358974358974359" class="treeEdge trait_Q2FwaXRhbA==" vector-effect="non-scaling-stroke" id="node#21" stroke="orange"></path><path d="M 774.2707474041125 480.60625 H 754.7647839835736 V 475.103125" fill="none" stroke-opacity="1.0" class="treeEdge trait_V2Fpa2F0bw==" vector-effect="non-scaling-stroke" id="node#22" stroke="blue"></path><path d="M 760.4930625034422 469.6 H 754.7647839835736 V 475.103125" fill="none" stroke-opacity="1.0" class="treeEdge trait_Q2FwaXRhbA==" vector-effect="non-scaling-stroke" id="node#23" stroke="orange"></path><path d="M 772.4337232517988 458.59375 H 752.4894798097822 V 466.8484375" fill="none" stroke-opacity="1.0" class="treeEdge trait_SGF3a2Vz" vector-effect="non-scaling-stroke" id="node#20" stroke="green"></path><path d="M 742.1228160653204 447.5875 H 726.8432694552779 V 470.63183593749994" fill="none" stroke-opacity="1.0" class="treeEdge trait_Q2FudGVyYnVyeQ==" vector-effect="non-scaling-stroke" id="node#37" stroke="purple"></path><path d="M 724.3991607828879 410.44140624999994 H 700.8868807511699 V 440.53662109375" fill="none" stroke-opacity="0.2918918918918919" class="treeEdge trait_TmVsc29u" vector-effect="non-scaling-stroke" id="node#38" stroke="red"></path><path d="M 757.2747305009747 422.8234375 H 724.3991607828879 V 410.44140624999994" fill="none" stroke-opacity="0.5121951219512195" class="treeEdge trait_Q2FudGVyYnVyeQ==" vector-effect="non-scaling-stroke" id="node#39" stroke="purple"></path><path d="M 766.7354687610625 431.078125 H 757.2747305009747 V 422.8234375" fill="none" stroke-opacity="0.5694444444444444" class="treeEdge trait_Q2FudGVyYnVyeQ==" vector-effect="non-scaling-stroke" id="node#41" stroke="purple"></path><path d="M 771.515209796165 436.58125 H 766.7354687610625 V 431.078125" fill="none" stroke-opacity="1.0" class="treeEdge trait_Q2FudGVyYnVyeQ==" vector-effect="non-scaling-stroke" id="node#42" stroke="purple"></path><path d="M 806.4186786701362 425.575 H 766.7354687610625 V 431.078125" fill="none" stroke-opacity="1.0" class="treeEdge trait_U291dGhlcm4=" vector-effect="non-scaling-stroke" id="node#43" stroke="purple"></path><path d="M 766.9226482994248 414.56875 H 757.2747305009747 V 422.8234375" fill="none" stroke-opacity="1.0" class="treeEdge trait_Q2FudGVyYnVyeQ==" vector-effect="non-scaling-stroke" id="node#40" stroke="purple"></path><path d="M 737.9405531892075 398.059375 H 724.3991607828879 V 410.44140624999994" fill="none" stroke-opacity="0.65" class="treeEdge trait_TmVsc29u" vector-effect="non-scaling-stroke" id="node#44" stroke="red"></path><path d="M 746.7153778473084 403.56249999999994 H 737.9405531892075 V 398.059375" fill="none" stroke-opacity="1.0" class="treeEdge trait_TmVsc29u" vector-effect="non-scaling-stroke" id="node#45" stroke="red"></path><path d="M 760.4930624786464 392.55625 H 737.9405531892075 V 398.059375" fill="none" stroke-opacity="1.0" class="treeEdge trait_TmVsc29u" vector-effect="non-scaling-stroke" id="node#46" stroke="red"></path><path d="M 689.3935443727892 261.771044921875 H 617.654847624152 V 351.1538330078125" fill="none" stroke-opacity="0.0975609756097561" class="treeEdge trait_SGF3a2Vz" vector-effect="non-scaling-stroke" id="node#47" stroke="green"></path><path d="M 726.7679579946681 290.57646484375 H 689.3935443727892 V 261.771044921875" fill="none" stroke-opacity="0.12937062937062938" class="treeEdge trait_V2Fpa2F0bw==" vector-effect="non-scaling-stroke" id="node#48" stroke="blue"></path><path d="M 742.898192567299 321.3595703125 H 726.7679579946681 V 290.57646484375" fill="none" stroke-opacity="0.1643835616438356" class="treeEdge trait_V2Fpa2F0bw==" vector-effect="non-scaling-stroke" id="node#58" stroke="blue"></path><path d="M 739.7501748824499 338.21289062500006 H 742.898192567299 V 321.3595703125" fill="none" stroke-opacity="0.5" class="treeEdge trait_QmF5K1dhaWthdG8=" vector-effect="non-scaling-stroke" id="node#59" stroke="green"></path><path d="M 746.4878098300127 355.41015625 H 739.7501748824499 V 338.21289062500006" fill="none" stroke-opacity="0.4444444444444444" class="treeEdge trait_TGFrZXMrV2Fpa2F0bw==" vector-effect="non-scaling-stroke" id="node#60" stroke="#ff00ff"></path><path d="M 771.1123742587663 367.7921875 H 746.4878098300127 V 355.41015625" fill="none" stroke-opacity="0.37142857142857144" class="treeEdge trait_Q291bnRpZXM=" vector-effect="non-scaling-stroke" id="node#64" stroke="#ff00ff"></path><path d="M 775.3005722423217 376.046875 H 771.1123742587663 V 367.7921875" fill="none" stroke-opacity="0.37735849056603776" class="treeEdge trait_Q291bnRpZXM=" vector-effect="non-scaling-stroke" id="node#65" stroke="#ff00ff"></path><path d="M 788.9669456509055 381.55 H 775.3005722423217 V 376.046875" fill="none" stroke-opacity="1.0" class="treeEdge trait_Q291bnRpZXM=" vector-effect="non-scaling-stroke" id="node#66" stroke="#ff00ff"></path><path d="M 798.1520689875002 370.54374999999993 H 775.3005722423217 V 376.046875" fill="none" stroke-opacity="1.0" class="treeEdge trait_Q291bnRpZXM=" vector-effect="non-scaling-stroke" id="node#67" stroke="#ff00ff"></path><path d="M 799.9890931074741 359.5375 H 771.1123742587663 V 367.7921875" fill="none" stroke-opacity="1.0" class="treeEdge trait_Q2FwaXRhbA==" vector-effect="non-scaling-stroke" id="node#68" stroke="orange"></path><path d="M 760.6136316291297 343.028125 H 746.4878098300127 V 355.41015625" fill="none" stroke-opacity="0.3333333333333333" class="treeEdge trait_V2Fpa2F0bw==" vector-effect="non-scaling-stroke" id="node#61" stroke="blue"></path><path d="M 766.0041376456123 348.53125000000006 H 760.6136316291297 V 343.028125" fill="none" stroke-opacity="1.0" class="treeEdge trait_V2Fpa2F0bw==" vector-effect="non-scaling-stroke" id="node#62" stroke="blue"></path><path d="M 766.0041377388654 337.525 H 760.6136316291297 V 343.028125" fill="none" stroke-opacity="1.0" class="treeEdge trait_QmF5" vector-effect="non-scaling-stroke" id="node#63" stroke="red"></path><path d="M 774.9039898883603 321.015625 H 739.7501748824499 V 338.21289062500006" fill="none" stroke-opacity="0.3049645390070922" class="treeEdge trait_Q291bnRpZXMrQXVja2xhbmQ=" vector-effect="non-scaling-stroke" id="node#69" stroke="blue"></path><path d="M 806.4186784948909 326.51875 H 774.9039898883603 V 321.015625" fill="none" stroke-opacity="1.0" class="treeEdge trait_Q291bnRpZXM=" vector-effect="non-scaling-stroke" id="node#70" stroke="#ff00ff"></path><path d="M 795.3965313394252 315.51250000000005 H 774.9039898883603 V 321.015625" fill="none" stroke-opacity="1.0" class="treeEdge trait_QXVja2xhbmQ=" vector-effect="non-scaling-stroke" id="node#71" stroke="blue"></path><path d="M 792.6409935196516 304.50624999999997 H 742.898192567299 V 321.3595703125" fill="none" stroke-opacity="1.0" class="treeEdge trait_SHV0dA==" vector-effect="non-scaling-stroke" id="node#72" stroke="purple"></path><path d="M 757.5855689519766 259.79335937499997 H 726.7679579946681 V 290.57646484375" fill="none" stroke-opacity="0.2736842105263158" class="treeEdge trait_V2Fpa2F0bw==" vector-effect="non-scaling-stroke" id="node#49" stroke="blue"></path><path d="M 767.8986290357216 270.11171874999997 H 757.5855689519766 V 259.79335937499997" fill="none" stroke-opacity="0.24299065420560748" class="treeEdge trait_SGF3a2Vz" vector-effect="non-scaling-stroke" id="node#50" stroke="green"></path><path d="M 778.0099769120184 279.74218749999994 H 767.8986290357216 V 270.11171874999997" fill="none" stroke-opacity="0.25" class="treeEdge trait_SGF3a2Vz" vector-effect="non-scaling-stroke" id="node#52" stroke="green"></path><path d="M 797.5214366967783 287.996875 H 778.0099769120184 V 279.74218749999994" fill="none" stroke-opacity="0.17535545023696683" class="treeEdge trait_TGFrZXM=" vector-effect="non-scaling-stroke" id="node#54" stroke="orange"></path><path d="M 819.2778528974034 293.5 H 797.5214366967783 V 287.996875" fill="none" stroke-opacity="1.0" class="treeEdge trait_TGFrZXM=" vector-effect="non-scaling-stroke" id="node#55" stroke="orange"></path><path d="M 830.3000000000001 282.49375 H 797.5214366967783 V 287.996875" fill="none" stroke-opacity="1.0" class="treeEdge trait_TWlkQ2VudHJhbA==" vector-effect="non-scaling-stroke" id="node#56" stroke="blue"></path><path d="M 794.4780175447482 271.4875 H 778.0099769120184 V 279.74218749999994" fill="none" stroke-opacity="1.0" class="treeEdge trait_SGF3a2Vz" vector-effect="non-scaling-stroke" id="node#53" stroke="green"></path><path d="M 778.8633089202131 260.48125 H 767.8986290357216 V 270.11171874999997" fill="none" stroke-opacity="1.0" class="treeEdge trait_SGF3a2Vz" vector-effect="non-scaling-stroke" id="node#51" stroke="green"></path><path d="M 769.6781857381973 249.47499999999997 H 757.5855689519766 V 259.79335937499997" fill="none" stroke-opacity="1.0" class="treeEdge trait_V2Fpa2F0bw==" vector-effect="non-scaling-stroke" id="node#57" stroke="blue"></path><path d="M 772.9872149389398 232.96562500000002 H 689.3935443727892 V 261.771044921875" fill="none" stroke-opacity="0.18466898954703834" class="treeEdge trait_V2hhbmdhbnVp" vector-effect="non-scaling-stroke" id="node#73" stroke="red"></path><path d="M 798.152068762124 238.46875 H 772.9872149389398 V 232.96562500000002" fill="none" stroke-opacity="1.0" class="treeEdge trait_V2hhbmdhbnVp" vector-effect="non-scaling-stroke" id="node#74" stroke="red"></path><path d="M 796.3150447705362 227.46249999999998 H 772.9872149389398 V 232.96562500000002" fill="none" stroke-opacity="1.0" class="treeEdge trait_QXVja2xhbmQ=" vector-effect="non-scaling-stroke" id="node#75" stroke="blue"></path><path d="M 753.1449635630946 216.45624999999995 H 584.3593316203232 V 283.8050415039062" fill="none" stroke-opacity="1.0" class="treeEdge trait_QXVja2xhbmQ=" vector-effect="non-scaling-stroke" id="node#76" stroke="blue"></path><path d="M 602.4851795623011 160.04921874999994 H 428.2962621921769 V 221.92713012695307" fill="none" stroke-opacity="0.10104529616724739" class="treeEdge trait_Q2FudGVyYnVyeQ==" vector-effect="non-scaling-stroke" id="node#77" stroke="purple"></path><path d="M 697.3145769802662 182.06171874999998 H 602.4851795623011 V 160.04921874999994" fill="none" stroke-opacity="0.1258741258741259" class="treeEdge trait_Q2FwaXRhbA==" vector-effect="non-scaling-stroke" id="node#78" stroke="orange"></path><path d="M 725.0067968774256 191.69218750000002 H 697.3145769802662 V 182.06171874999998" fill="none" stroke-opacity="0.11904761904761904" class="treeEdge trait_V2Fpa2F0bw==" vector-effect="non-scaling-stroke" id="node#79" stroke="blue"></path><path d="M 726.6744637027056 199.946875 H 725.0067968774256 V 191.69218750000002" fill="none" stroke-opacity="0.17105263157894737" class="treeEdge trait_Q2FwaXRhbA==" vector-effect="non-scaling-stroke" id="node#81" stroke="orange"></path><path d="M 785.2928946219838 205.45 H 726.6744637027056 V 199.946875" fill="none" stroke-opacity="1.0" class="treeEdge trait_TGFrZXM=" vector-effect="non-scaling-stroke" id="node#82" stroke="orange"></path><path d="M 774.2707474131286 194.44375 H 726.6744637027056 V 199.946875" fill="none" stroke-opacity="1.0" class="treeEdge trait_SHV0dA==" vector-effect="non-scaling-stroke" id="node#83" stroke="purple"></path><path d="M 778.8633090310685 183.43749999999997 H 725.0067968774256 V 191.69218750000002" fill="none" stroke-opacity="1.0" class="treeEdge trait_Q2FwaXRhbA==" vector-effect="non-scaling-stroke" id="node#80" stroke="orange"></path><path d="M 740.285792205845 172.43125 H 697.3145769802662 V 182.06171874999998" fill="none" stroke-opacity="1.0" class="treeEdge trait_Q2FwaXRhbA==" vector-effect="non-scaling-stroke" id="node#84" stroke="orange"></path><path d="M 740.8287014804285 138.03671874999998 H 602.4851795623011 V 160.04921874999994" fill="none" stroke-opacity="0.24390243902439024" class="treeEdge trait_Q291bnRpZXMrV2Fpa2F0bw==" vector-effect="non-scaling-stroke" id="node#85" stroke="red"></path><path d="M 756.8003800008228 147.66718749999995 H 740.8287014804285 V 138.03671874999998" fill="none" stroke-opacity="0.15584415584415584" class="treeEdge trait_V2Fpa2F0bw==" vector-effect="non-scaling-stroke" id="node#87" stroke="blue"></path><path d="M 764.0135807059445 155.92187499999994 H 756.8003800008228 V 147.66718749999995" fill="none" stroke-opacity="0.38235294117647056" class="treeEdge trait_V2Fpa2F0bw==" vector-effect="non-scaling-stroke" id="node#88" stroke="blue"></path><path d="M 770.5966996302732 161.42499999999998 H 764.0135807059445 V 155.92187499999994" fill="none" stroke-opacity="1.0" class="treeEdge trait_V2Fpa2F0bw==" vector-effect="non-scaling-stroke" id="node#89" stroke="blue"></path><path d="M 811.0112405852914 150.41874999999996 H 764.0135807059445 V 155.92187499999994" fill="none" stroke-opacity="1.0" class="treeEdge trait_V2hhbmdhbnVp" vector-effect="non-scaling-stroke" id="node#90" stroke="red"></path><path d="M 788.048432402021 139.41250000000002 H 756.8003800008228 V 147.66718749999995" fill="none" stroke-opacity="1.0" class="treeEdge trait_Q2FudGVyYnVyeQ==" vector-effect="non-scaling-stroke" id="node#91" stroke="purple"></path><path d="M 775.1892613018908 128.40625 H 740.8287014804285 V 138.03671874999998" fill="none" stroke-opacity="1.0" class="treeEdge trait_Q291bnRpZXM=" vector-effect="non-scaling-stroke" id="node#86" stroke="#ff00ff"></path><path d="M 722.8749598164701 87.1328125 H 251.03557764131426 V 154.52997131347652" fill="none" stroke-opacity="0.1254355400696864" class="treeEdge trait_VGFpcmF3aGl0aQ==" vector-effect="non-scaling-stroke" id="node#2" stroke="orange"></path><path d="M 753.8791952747481 103.6421875 H 722.8749598164701 V 87.1328125" fill="none" stroke-opacity="0.20848056537102475" class="treeEdge trait_VGFpcmF3aGl0aQ==" vector-effect="non-scaling-stroke" id="node#3" stroke="orange"></path><path d="M 775.237017597503 111.896875 H 753.8791952747481 V 103.6421875" fill="none" stroke-opacity="0.29777777777777775" class="treeEdge trait_QXVja2xhbmQ=" vector-effect="non-scaling-stroke" id="node#5" stroke="blue"></path><path d="M 796.3150450041347 117.39999999999998 H 775.237017597503 V 111.896875" fill="none" stroke-opacity="1.0" class="treeEdge trait_TWlkQ2VudHJhbA==" vector-effect="non-scaling-stroke" id="node#6" stroke="blue"></path><path d="M 789.8854560358641 106.39375000000001 H 775.237017597503 V 111.896875" fill="none" stroke-opacity="1.0" class="treeEdge trait_QXVja2xhbmQ=" vector-effect="non-scaling-stroke" id="node#7" stroke="blue"></path><path d="M 769.6781856812482 95.38749999999999 H 753.8791952747481 V 103.6421875" fill="none" stroke-opacity="1.0" class="treeEdge trait_VGFpcmF3aGl0aQ==" vector-effect="non-scaling-stroke" id="node#4" stroke="orange"></path><path d="M 753.8156257689056 70.6234375 H 722.8749598164701 V 87.1328125" fill="none" stroke-opacity="0.14213197969543148" class="treeEdge trait_QmF5" vector-effect="non-scaling-stroke" id="node#8" stroke="red"></path><path d="M 795.3706804558184 78.878125 H 753.8156257689056 V 70.6234375" fill="none" stroke-opacity="0.2222222222222222" class="treeEdge trait_QmF5" vector-effect="non-scaling-stroke" id="node#10" stroke="red"></path><path d="M 811.9297539563747 84.38124999999998 H 795.3706804558184 V 78.878125" fill="none" stroke-opacity="1.0" class="treeEdge trait_QmF5" vector-effect="non-scaling-stroke" id="node#11" stroke="red"></path><path d="M 817.4408258165855 73.37500000000001 H 795.3706804558184 V 78.878125" fill="none" stroke-opacity="1.0" class="treeEdge trait_Q291bnRpZXM=" vector-effect="non-scaling-stroke" id="node#12" stroke="#ff00ff"></path><path d="M 774.2707474074116 62.36875 H 753.8156257689056 V 70.6234375" fill="none" stroke-opacity="1.0" class="treeEdge trait_V2Fpa2F0bw==" vector-effect="non-scaling-stroke" id="node#9" stroke="blue"></path><path d="M 398.85960858648025 37.6046875 H 51.4881188118812 V 96.06732940673822" fill="none" stroke-opacity="0.1254355400696864" class="treeEdge trait_VGFyYW5ha2k=" vector-effect="non-scaling-stroke" id="node#92" stroke="#ff00ff"></path><path d="M 720.9316173818057 45.859375 H 398.85960858648025 V 37.6046875" fill="none" stroke-opacity="0.554006968641115" class="treeEdge trait_VGFyYW5ha2k=" vector-effect="non-scaling-stroke" id="node#94" stroke="#ff00ff"></path><path d="M 742.1228157333749 51.36249999999998 H 720.9316173818057 V 45.859375" fill="none" stroke-opacity="1.0" class="treeEdge trait_VGFyYW5ha2k=" vector-effect="non-scaling-stroke" id="node#95" stroke="#ff00ff"></path><path d="M 766.0041374658971 40.35625000000002 H 720.9316173818057 V 45.859375" fill="none" stroke-opacity="1.0" class="treeEdge trait_VGFyYW5ha2k=" vector-effect="non-scaling-stroke" id="node#96" stroke="#ff00ff"></path><path d="M 738.4487674052261 29.35 H 398.85960858648025 V 37.6046875" fill="none" stroke-opacity="1.0" class="treeEdge trait_Q2FudGVyYnVyeQ==" vector-effect="non-scaling-stroke" id="node#93" stroke="purple"></path><text x="772.4337233953119" y="557.65" transform="matrix(1 0 0 1 0 0) matrix(1 0 0 1 0 0)">Southern</text><text x="766.9226480220183" y="546.64375" transform="matrix(1 0 0 1 0 0) matrix(1 0 0 1 0 0)">Southern</text><text x="782.5373600869077" y="535.6374999999999" transform="matrix(1 0 0 1 0 0) matrix(1 0 0 1 0 0)">Southern</text><text x="793.5595073600363" y="524.6312499999999" transform="matrix(1 0 0 1 0 0) matrix(1 0 0 1 0 0)">Bay</text><text x="780.700332978823" y="513.6249999999999" transform="matrix(1 0 0 1 0 0) matrix(1 0 0 1 0 0)">Canterbury</text><text x="763.2486001452431" y="502.61875" transform="matrix(1 0 0 1 0 0) matrix(1 0 0 1 0 0)">Southern</text><text x="775.1892610097068" y="491.61249999999995" transform="matrix(1 0 0 1 0 0) matrix(1 0 0 1 0 0)">Canterbury</text><text x="774.2707474041125" y="480.60625" transform="matrix(1 0 0 1 0 0) matrix(1 0 0 1 0 0)">Waikato</text><text x="760.4930625034422" y="469.6" transform="matrix(1 0 0 1 0 0) matrix(1 0 0 1 0 0)">Capital</text><text x="772.4337232517988" y="458.59375" transform="matrix(1 0 0 1 0 0) matrix(1 0 0 1 0 0)">Hawkes</text><text x="742.1228160653204" y="447.5875" transform="matrix(1 0 0 1 0 0) matrix(1 0 0 1 0 0)">Canterbury</text><text x="771.515209796165" y="436.58125" transform="matrix(1 0 0 1 0 0) matrix(1 0 0 1 0 0)">Canterbury</text><text x="806.4186786701362" y="425.575" transform="matrix(1 0 0 1 0 0) matrix(1 0 0 1 0 0)">Southern</text><text x="766.9226482994248" y="414.56875" transform="matrix(1 0 0 1 0 0) matrix(1 0 0 1 0 0)">Canterbury</text><text x="746.7153778473084" y="403.56249999999994" transform="matrix(1 0 0 1 0 0) matrix(1 0 0 1 0 0)">Nelson</text><text x="760.4930624786464" y="392.55625" transform="matrix(1 0 0 1 0 0) matrix(1 0 0 1 0 0)">Nelson</text><text x="788.9669456509055" y="381.55" transform="matrix(1 0 0 1 0 0) matrix(1 0 0 1 0 0)">Counties</text><text x="798.1520689875002" y="370.54374999999993" transform="matrix(1 0 0 1 0 0) matrix(1 0 0 1 0 0)">Counties</text><text x="799.9890931074741" y="359.5375" transform="matrix(1 0 0 1 0 0) matrix(1 0 0 1 0 0)">Capital</text><text x="766.0041376456123" y="348.53125000000006" transform="matrix(1 0 0 1 0 0) matrix(1 0 0 1 0 0)">Waikato</text><text x="766.0041377388654" y="337.525" transform="matrix(1 0 0 1 0 0) matrix(1 0 0 1 0 0)">Bay</text><text x="806.4186784948909" y="326.51875" transform="matrix(1 0 0 1 0 0) matrix(1 0 0 1 0 0)">Counties</text><text x="795.3965313394252" y="315.51250000000005" transform="matrix(1 0 0 1 0 0) matrix(1 0 0 1 0 0)">Auckland</text><text x="792.6409935196516" y="304.50624999999997" transform="matrix(1 0 0 1 0 0) matrix(1 0 0 1 0 0)">Hutt</text><text x="819.2778528974034" y="293.5" transform="matrix(1 0 0 1 0 0) matrix(1 0 0 1 0 0)">Lakes</text><text x="830.3000000000001" y="282.49375" transform="matrix(1 0 0 1 0 0) matrix(1 0 0 1 0 0)">MidCentral</text><text x="794.4780175447482" y="271.4875" transform="matrix(1 0 0 1 0 0) matrix(1 0 0 1 0 0)">Hawkes</text><text x="778.8633089202131" y="260.48125" transform="matrix(1 0 0 1 0 0) matrix(1 0 0 1 0 0)">Hawkes</text><text x="769.6781857381973" y="249.47499999999997" transform="matrix(1 0 0 1 0 0) matrix(1 0 0 1 0 0)">Waikato</text><text x="798.152068762124" y="238.46875" transform="matrix(1 0 0 1 0 0) matrix(1 0 0 1 0 0)">Whanganui</text><text x="796.3150447705362" y="227.46249999999998" transform="matrix(1 0 0 1 0 0) matrix(1 0 0 1 0 0)">Auckland</text><text x="753.1449635630946" y="216.45624999999995" transform="matrix(1 0 0 1 0 0) matrix(1 0 0 1 0 0)">Auckland</text><text x="785.2928946219838" y="205.45" transform="matrix(1 0 0 1 0 0) matrix(1 0 0 1 0 0)">Lakes</text><text x="774.2707474131286" y="194.44375" transform="matrix(1 0 0 1 0 0) matrix(1 0 0 1 0 0)">Hutt</text><text x="778.8633090310685" y="183.43749999999997" transform="matrix(1 0 0 1 0 0) matrix(1 0 0 1 0 0)">Capital</text><text x="740.285792205845" y="172.43125" transform="matrix(1 0 0 1 0 0) matrix(1 0 0 1 0 0)">Capital</text><text x="770.5966996302732" y="161.42499999999998" transform="matrix(1 0 0 1 0 0) matrix(1 0 0 1 0 0)">Waikato</text><text x="811.0112405852914" y="150.41874999999996" transform="matrix(1 0 0 1 0 0) matrix(1 0 0 1 0 0)">Whanganui</text><text x="788.048432402021" y="139.41250000000002" transform="matrix(1 0 0 1 0 0) matrix(1 0 0 1 0 0)">Canterbury</text><text x="775.1892613018908" y="128.40625" transform="matrix(1 0 0 1 0 0) matrix(1 0 0 1 0 0)">Counties</text><text x="796.3150450041347" y="117.39999999999998" transform="matrix(1 0 0 1 0 0) matrix(1 0 0 1 0 0)">MidCentral</text><text x="789.8854560358641" y="106.39375000000001" transform="matrix(1 0 0 1 0 0) matrix(1 0 0 1 0 0)">Auckland</text><text x="769.6781856812482" y="95.38749999999999" transform="matrix(1 0 0 1 0 0) matrix(1 0 0 1 0 0)">Tairawhiti</text><text x="811.9297539563747" y="84.38124999999998" transform="matrix(1 0 0 1 0 0) matrix(1 0 0 1 0 0)">Bay</text><text x="817.4408258165855" y="73.37500000000001" transform="matrix(1 0 0 1 0 0) matrix(1 0 0 1 0 0)">Counties</text><text x="774.2707474074116" y="62.36875" transform="matrix(1 0 0 1 0 0) matrix(1 0 0 1 0 0)">Waikato</text><text x="742.1228157333749" y="51.36249999999998" transform="matrix(1 0 0 1 0 0) matrix(1 0 0 1 0 0)">Taranaki</text><text x="766.0041374658971" y="40.35625000000002" transform="matrix(1 0 0 1 0 0) matrix(1 0 0 1 0 0)">Taranaki</text><text x="738.4487674052261" y="29.35" transform="matrix(1 0 0 1 0 0) matrix(1 0 0 1 0 0)">Canterbury</text><line x1="830.3000000000001" y1="587" x2="830.3000000000001" y2="-1.0658141036401503e-14" stroke="gray" stroke-width="1px" vector-effect="non-scaling-stroke" class="axisComponent"></line><text x="830.3000000000001" y="587" fill="gray" class="axisComponent" transform="matrix(1 0 0 1 0 0) matrix(1 0 0 1 0 0)">2012.7</text><line x1="495.0430000964617" y1="587" x2="495.0430000964617" y2="-1.0658141036401503e-14" stroke="gray" stroke-width="1px" vector-effect="non-scaling-stroke" class="axisComponent"></line><text x="495.0430000964617" y="587" fill="gray" class="axisComponent" transform="matrix(1 0 0 1 0 0) matrix(1 0 0 1 0 0)">2013.7</text><line x1="159.78600019292344" y1="587" x2="159.78600019292344" y2="-1.0658141036401503e-14" stroke="gray" stroke-width="1px" vector-effect="non-scaling-stroke" class="axisComponent"></line><text x="159.78600019292344" y="587" fill="gray" class="axisComponent" transform="matrix(1 0 0 1 0 0) matrix(1 0 0 1 0 0)">2014.7</text></svg>
