<svg xmlns="http://www.w3.org/2000/svg" version="1.1" width="1233" height="711" preserveAspectRatio="none" style="stroke-width: 4px; font-size: 17px; font-family: sans-serif; shape-rendering: crispedges;" id="SVG" viewBox="-20 -49 1297.7608642578125 789"><rect id="backgroundRect" x="-20" y="-49" width="1297.7608642578125" height="789" fill="white"></rect><path d="M 1067.8120432327921 592.5 H 937.5899514710118 V 636.9375" fill="none" stroke-width="4" class="treeEdge edgetrait_OA==" vector-effect="non-scaling-stroke" id="node#19" stroke="#998300"></path><path d="M 1177.9373477442641 533.25 H 1138.144182309563 V 503.625" fill="none" stroke-width="4" class="treeEdge edgetrait_OA==" vector-effect="non-scaling-stroke" id="node#17" stroke="#998300"></path><path d="M 1012.749390977056 414.74999999999994 H 954.3724606774084 V 385.125" fill="none" stroke-width="4" class="treeEdge edgetrait_OA==" vector-effect="non-scaling-stroke" id="node#13" stroke="#998300"></path><path d="M 1233 296.25 H 1151.4122216430198 V 296.25" fill="none" stroke-width="4" class="treeEdge edgetrait_OA==" vector-effect="non-scaling-stroke" id="node#26" stroke="#998300"></path><path d="M 1122.8746954885278 237.00000000000003 H 1102.2610356193602 V 237.00000000000003" fill="none" stroke-width="4" class="treeEdge edgetrait_OA==" vector-effect="non-scaling-stroke" id="node#32" stroke="#998300"></path><path d="M 958.6981487840026 681.375 H 937.5899514710118 V 636.9375" fill="none" stroke-width="4" class="treeEdge edgetrait_Ng==" vector-effect="non-scaling-stroke" id="node#20" stroke="#2b9900"></path><path d="M 937.5899514710118 636.9375 H 895.8179254014728 V 570.28125" fill="none" stroke-width="4" class="treeEdge edgetrait_OA==" vector-effect="non-scaling-stroke" id="node#18" stroke="#998300"></path><path d="M 1138.144182309563 503.625 H 895.8179254014728 V 570.28125" fill="none" stroke-width="4" class="treeEdge edgetrait_OA==" vector-effect="non-scaling-stroke" id="node#15" stroke="#998300"></path><path d="M 895.8179254014728 570.28125 H 837.4411119370336 V 477.703125" fill="none" stroke-width="4" class="treeEdge edgetrait_OA==" vector-effect="non-scaling-stroke" id="node#14" stroke="#998300"></path><path d="M 954.3724606774084 385.125 H 837.4411119370336 V 477.703125" fill="none" stroke-width="4" class="treeEdge edgetrait_OA==" vector-effect="non-scaling-stroke" id="node#11" stroke="#998300"></path><path d="M 837.4411119370336 477.703125 H 747.8397461572374 V 477.703125" fill="none" stroke-width="4" class="treeEdge edgetrait_OA==" vector-effect="non-scaling-stroke" id="node#10" stroke="#998300"></path><path d="M 747.8397461572374 477.703125 H 626.4285250678565 V 386.97656249999994" fill="none" stroke-width="4" class="treeEdge edgetrait_Mw==" vector-effect="non-scaling-stroke" id="node#9" stroke="#4100e5"></path><path d="M 1151.4122216430198 296.25 H 995.4753381930684 V 296.25" fill="none" stroke-width="4" class="treeEdge edgetrait_NQ==" vector-effect="non-scaling-stroke" id="node#25" stroke="#009957"></path><path d="M 995.4753381930684 296.25 H 642.4375517901897 V 296.25" fill="none" stroke-width="4" class="treeEdge edgetrait_Mw==" vector-effect="non-scaling-stroke" id="node#24" stroke="#4100e5"></path><path d="M 642.4375517901897 296.25 H 626.4285250678565 V 386.97656249999994" fill="none" stroke-width="4" class="treeEdge edgetrait_MQ==" vector-effect="non-scaling-stroke" id="node#23" stroke="#e50000"></path><path d="M 626.4285250678565 386.97656249999994 H 443.3465127140989 V 386.97656249999994" fill="none" stroke-width="4" class="treeEdge edgetrait_Mw==" vector-effect="non-scaling-stroke" id="node#8" stroke="#4100e5"></path><path d="M 443.3465127140989 386.97656249999994 H 56.104137945397426 V 297.17578125" fill="none" stroke-width="4" class="treeEdge edgetrait_MQ==" vector-effect="non-scaling-stroke" id="node#7" stroke="#e50000"></path><path d="M 1102.2610356193602 237.00000000000003 H 978.8665095349091 V 237.00000000000003" fill="none" stroke-width="4" class="treeEdge edgetrait_NA==" vector-effect="non-scaling-stroke" id="node#31" stroke="#0083e5"></path><path d="M 978.8665095349091 237.00000000000003 H 937.9885576812877 V 237.00000000000003" fill="none" stroke-width="4" class="treeEdge edgetrait_Mg==" vector-effect="non-scaling-stroke" id="node#30" stroke="#e500c4"></path><path d="M 937.9885576812877 237.00000000000003 H 253.98762912774555 V 207.37500000000006" fill="none" stroke-width="4" class="treeEdge edgetrait_MQ==" vector-effect="non-scaling-stroke" id="node#29" stroke="#e50000"></path><path d="M 253.98762912774555 207.37500000000006 H 56.104137945397426 V 297.17578125" fill="none" stroke-width="4" class="treeEdge edgetrait_Mg==" vector-effect="non-scaling-stroke" id="node#27" stroke="#e500c4"></path><path d="M 56.104137945397426 297.17578125 H 12.207920792079218 V 185.61914062500003" fill="none" stroke-width="4" class="treeEdge edgetrait_Mw==" vector-effect="non-scaling-stroke" id="node#6" stroke="#4100e5"></path><path d="M 437.047399704642 29.625000000000053 H 307.4992943881361 V 74.06250000000006" fill="none" stroke-width="4" class="treeEdge edgetrait_NA==" vector-effect="non-scaling-stroke" id="node#3" stroke="#0083e5"></path><path d="M 307.4992943881361 74.06250000000006 H 12.207920792079218 V 185.61914062500003" fill="none" stroke-width="4" class="treeEdge edgetrait_OA==" vector-effect="non-scaling-stroke" id="node#1" stroke="#998300"></path><path d="M 12.207920792079218 185.61914062500003 H 0 V 185.61914062500003" fill="none" stroke-width="4" class="treeEdge edgetrait_OA==" vector-effect="non-scaling-stroke" id="node#0" stroke="#998300"></path><path d="M 443.3465127140989 386.97656249999994 L 443.3465127140989 0 H 437.047399704642 V 29.625000000000053" fill="none" stroke-width="4" class="treeEdge edgetrait_Mg==" vector-effect="non-scaling-stroke" stroke-dasharray="12, 4" id="node#4" stroke="#e500c4"></path><ellipse cx="443.3465127140989" cy="386.97656249999994" rx="4.683190311517087" ry="4.937619419206649" shape-rendering="auto" fill="black" class="nodeMark"></ellipse><path d="M 747.8397461572374 477.703125 L 747.8397461572374 118.49999999999997 H 307.4992943881361 V 74.06250000000006" fill="none" stroke-width="4" class="treeEdge edgetrait_NQ==" vector-effect="non-scaling-stroke" stroke-dasharray="12, 4" id="node#2" stroke="#009957"></path><ellipse cx="747.8397461572374" cy="477.703125" rx="4.683190311517087" ry="4.937619419206649" shape-rendering="auto" fill="black" class="nodeMark"></ellipse><path d="M 642.4375517901897 296.25 L 642.4375517901897 59.25000000000003 H 437.047399704642 V 29.625000000000053" fill="none" stroke-width="4" class="treeEdge edgetrait_Mg==" vector-effect="non-scaling-stroke" stroke-dasharray="12, 4" id="node#5" stroke="#e500c4"></path><ellipse cx="642.4375517901897" cy="296.25" rx="4.683190311517087" ry="4.937619419206649" shape-rendering="auto" fill="black" class="nodeMark"></ellipse><path d="M 995.4753381930684 296.25 L 995.4753381930685 711 H 958.6981487840026 V 681.375" fill="none" stroke-width="4" class="treeEdge edgetrait_Mg==" vector-effect="non-scaling-stroke" stroke-dasharray="12, 4" id="node#22" stroke="#e500c4"></path><ellipse cx="995.4753381930684" cy="296.25" rx="4.683190311517087" ry="4.937619419206649" shape-rendering="auto" fill="black" class="nodeMark"></ellipse><path d="M 1151.4122216430198 296.25 L 1151.41222164302 474.00000000000006 H 1138.144182309563 V 503.625" fill="none" stroke-width="4" class="treeEdge edgetrait_Mw==" vector-effect="non-scaling-stroke" stroke-dasharray="12, 4" id="node#16" stroke="#4100e5"></path><ellipse cx="1151.4122216430198" cy="296.25" rx="4.683190311517087" ry="4.937619419206649" shape-rendering="auto" fill="black" class="nodeMark"></ellipse><path d="M 937.9885576812877 237.00000000000003 L 937.9885576812877 177.75 H 253.98762912774555 V 207.37500000000006" fill="none" stroke-width="4" class="treeEdge edgetrait_MQ==" vector-effect="non-scaling-stroke" stroke-dasharray="12, 4" id="node#28" stroke="#e50000"></path><ellipse cx="937.9885576812877" cy="237.00000000000003" rx="4.683190311517087" ry="4.937619419206649" shape-rendering="auto" fill="black" class="nodeMark"></ellipse><path d="M 978.8665095349091 237.00000000000003 L 978.8665095349094 355.5 H 954.3724606774084 V 385.125" fill="none" stroke-width="4" class="treeEdge edgetrait_Mg==" vector-effect="non-scaling-stroke" stroke-dasharray="12, 4" id="node#12" stroke="#e500c4"></path><ellipse cx="978.8665095349091" cy="237.00000000000003" rx="4.683190311517087" ry="4.937619419206649" shape-rendering="auto" fill="black" class="nodeMark"></ellipse><path d="M 1102.2610356193602 237.00000000000003 L 1102.2610356193604 651.75 H 958.6981487840026 V 681.375" fill="none" stroke-width="4" class="treeEdge edgetrait_NA==" vector-effect="non-scaling-stroke" stroke-dasharray="12, 4" id="node#21" stroke="#0083e5"></path><ellipse cx="1102.2610356193602" cy="237.00000000000003" rx="4.683190311517087" ry="4.937619419206649" shape-rendering="auto" fill="black" class="nodeMark"></ellipse><text x="995.4753381930685" y="711" dominant-baseline="central" transform="matrix(1.05252, 0, 0, 1.1097, 0, 0) matrix(1, 0, 0, 1, -49.6762, -70.289)">0,5</text><text x="1102.2610356193604" y="651.75" dominant-baseline="central" transform="matrix(1.05252, 0, 0, 1.1097, 0, 0) matrix(1, 0, 0, 1, -55.005, -64.4316)">1,2,3,7</text><text x="1151.41222164302" y="474.00000000000006" dominant-baseline="central" transform="matrix(1.05252, 0, 0, 1.1097, 0, 0) matrix(1, 0, 0, 1, -57.4578, -46.8593)">1,4,7</text><text x="978.8665095349094" y="355.5" dominant-baseline="central" transform="matrix(1.05252, 0, 0, 1.1097, 0, 0) matrix(1, 0, 0, 1, -48.8474, -35.1445)">5,6</text><text x="937.9885576812877" y="177.75" dominant-baseline="central" transform="matrix(1.05252, 0, 0, 1.1097, 0, 0) matrix(1, 0, 0, 1, -46.8075, -17.5722)">0</text><text x="747.8397461572374" y="118.49999999999997" dominant-baseline="central" transform="matrix(1.05252, 0, 0, 1.1097, 0, 0) matrix(1, 0, 0, 1, -37.3187, -11.7148)">1,4,5,6,7</text><text x="642.4375517901897" y="59.25000000000003" dominant-baseline="central" transform="matrix(1.05252, 0, 0, 1.1097, 0, 0) matrix(1, 0, 0, 1, -32.0589, -5.85741)">2,6</text><text x="443.3465127140989" y="0" dominant-baseline="central" transform="matrix(1.05252, 0, 0, 1.1097, 0, 0) matrix(1, 0, 0, 1, -22.1239, -0)">0,3</text><text x="968.6981487840026" y="681.375" pixelOffsetX="10" pixelOffsetY="0" dominant-baseline="central" class="internalText" transform="matrix(1.05252, 0, 0, 1.1097, 0, 0) matrix(1, 0, 0, 1, -48.34, -67.3603) translate(0.49902)">0,1,2,3,5,7</text><text x="947.5899514710118" y="636.9375" pixelOffsetX="10" pixelOffsetY="0" dominant-baseline="central" class="internalText" transform="matrix(1.05252, 0, 0, 1.1097, 0, 0) matrix(1, 0, 0, 1, -47.2866, -62.9672) translate(0.49902)">0,1,2,3,4,5,6,7</text><text x="1148.144182309563" y="503.625" pixelOffsetX="10" pixelOffsetY="0" dominant-baseline="central" class="internalText" transform="matrix(1.05252, 0, 0, 1.1097, 0, 0) matrix(1, 0, 0, 1, -57.2947, -49.788) translate(0.49902)">0,1,2,3,4,5,6,7</text><text x="905.8179254014728" y="570.28125" pixelOffsetX="10" pixelOffsetY="0" dominant-baseline="central" class="internalText" transform="matrix(1.05252, 0, 0, 1.1097, 0, 0) matrix(1, 0, 0, 1, -45.2021, -56.3776) translate(0.49902)">0,1,2,3,4,5,6,7</text><text x="964.3724606774084" y="385.125" pixelOffsetX="10" pixelOffsetY="0" dominant-baseline="central" class="internalText" transform="matrix(1.05252, 0, 0, 1.1097, 0, 0) matrix(1, 0, 0, 1, -48.1241, -38.0732) translate(0.49902)">0,1,2,3,4,5,6,7</text><text x="847.4411119370336" y="477.703125" pixelOffsetX="10" pixelOffsetY="0" dominant-baseline="central" class="internalText" transform="matrix(1.05252, 0, 0, 1.1097, 0, 0) matrix(1, 0, 0, 1, -42.289, -47.2254) translate(0.49902)">0,1,2,3,4,5,6,7</text><text x="747.8397461572374" y="467.703125" pixelOffsetX="0" pixelOffsetY="-10" dominant-baseline="no-change" class="internalText" transform="matrix(1.05252, 0, 0, 1.1097, 0, 0) matrix(1, 0, 0, 1, -37.3187, -46.2368) translate(0, -0.988593)">0,2,3</text><text x="1151.4122216430198" y="286.25" pixelOffsetX="0" pixelOffsetY="-10" dominant-baseline="no-change" class="internalText" transform="matrix(1.05252, 0, 0, 1.1097, 0, 0) matrix(1, 0, 0, 1, -57.4578, -28.2985) translate(0, -0.988593)">0,2,3,5,6</text><text x="995.4753381930684" y="286.25" pixelOffsetX="0" pixelOffsetY="-10" dominant-baseline="no-change" class="internalText" transform="matrix(1.05252, 0, 0, 1.1097, 0, 0) matrix(1, 0, 0, 1, -49.6762, -28.2985) translate(0, -0.988593)">2,3,6</text><text x="642.4375517901897" y="286.25" pixelOffsetX="0" pixelOffsetY="-10" dominant-baseline="no-change" class="internalText" transform="matrix(1.05252, 0, 0, 1.1097, 0, 0) matrix(1, 0, 0, 1, -32.0589, -28.2985) translate(0, -0.988593)">3</text><text x="636.4285250678565" y="386.97656249999994" pixelOffsetX="10" pixelOffsetY="0" dominant-baseline="central" class="internalText" transform="matrix(1.05252, 0, 0, 1.1097, 0, 0) matrix(1, 0, 0, 1, -31.7591, -38.2562) translate(0.49902)">0,2,3</text><text x="443.3465127140989" y="376.97656249999994" pixelOffsetX="0" pixelOffsetY="-10" dominant-baseline="no-change" class="internalText" transform="matrix(1.05252, 0, 0, 1.1097, 0, 0) matrix(1, 0, 0, 1, -22.1239, -37.2676) translate(0, -0.988593)">2</text><text x="1102.2610356193602" y="227.00000000000003" pixelOffsetX="0" pixelOffsetY="-10" dominant-baseline="no-change" class="internalText" transform="matrix(1.05252, 0, 0, 1.1097, 0, 0) matrix(1, 0, 0, 1, -55.005, -22.4411) translate(0, -0.988593)">0,4,5,6</text><text x="978.8665095349091" y="227.00000000000003" pixelOffsetX="0" pixelOffsetY="-10" dominant-baseline="no-change" class="internalText" transform="matrix(1.05252, 0, 0, 1.1097, 0, 0) matrix(1, 0, 0, 1, -48.8474, -22.4411) translate(0, -0.988593)">0,4</text><text x="937.9885576812877" y="227.00000000000003" pixelOffsetX="0" pixelOffsetY="-10" dominant-baseline="no-change" class="internalText" transform="matrix(1.05252, 0, 0, 1.1097, 0, 0) matrix(1, 0, 0, 1, -46.8075, -22.4411) translate(0, -0.988593)">4</text><text x="263.98762912774555" y="207.37500000000006" pixelOffsetX="10" pixelOffsetY="0" dominant-baseline="central" class="internalText" transform="matrix(1.05252, 0, 0, 1.1097, 0, 0) matrix(1, 0, 0, 1, -13.1735, -20.5009) translate(0.49902)">0,4</text><text x="66.10413794539743" y="297.17578125" pixelOffsetX="10" pixelOffsetY="0" dominant-baseline="central" class="internalText" transform="matrix(1.05252, 0, 0, 1.1097, 0, 0) matrix(1, 0, 0, 1, -3.29873, -29.3786) translate(0.49902)">0,2,4</text><text x="447.047399704642" y="29.625000000000053" pixelOffsetX="10" pixelOffsetY="0" dominant-baseline="central" class="internalText" transform="matrix(1.05252, 0, 0, 1.1097, 0, 0) matrix(1, 0, 0, 1, -22.3086, -2.92871) translate(0.49902)">0,2,3,6</text><text x="317.4992943881361" y="74.06250000000006" pixelOffsetX="10" pixelOffsetY="0" dominant-baseline="central" class="internalText" transform="matrix(1.05252, 0, 0, 1.1097, 0, 0) matrix(1, 0, 0, 1, -15.8439, -7.32177) translate(0.49902)">0,1,2,3,4,5,6,7</text><text x="22.207920792079218" y="185.61914062500003" pixelOffsetX="10" pixelOffsetY="0" dominant-baseline="central" class="internalText" transform="matrix(1.05252, 0, 0, 1.1097, 0, 0) matrix(1, 0, 0, 1, -1.10822, -18.3502) translate(0.49902)">0,1,2,3,4,5,6,7</text><text class="axisComponent" x="-9.474769592285156" y="534.7046508789062" transform="matrix(1.05252, 0, 0, 1.1097, 0, 0) matrix(1, 0, 0, 1, 0.47281, -52.8605)">Edge colour: Segscarried</text><rect x="-4.212154921147269" y="549.1308104438621" width="10.525230042642438" height="4.438818565400844" class="axisComponent" fill="#e50000"></rect><text dominant-baseline="central" class="axisComponent" x="16.83830516413761" y="551.3502197265625" fill="#e50000" transform="matrix(1.05252, 0, 0, 1.1097, 0, 0) matrix(1, 0, 0, 1, -0.840265, -54.5061)">1</text><rect x="-4.212154921147269" y="571.3249022407371" width="10.525230042642438" height="4.438818565400844" class="axisComponent" fill="#e500c4"></rect><text dominant-baseline="central" class="axisComponent" x="16.83830516413761" y="573.5443115234375" fill="#e500c4" transform="matrix(1.05252, 0, 0, 1.1097, 0, 0) matrix(1, 0, 0, 1, -0.840265, -56.7002)">2</text><rect x="-4.212154921147269" y="593.5189940376121" width="10.525230042642438" height="4.438818565400844" class="axisComponent" fill="#4100e5"></rect><text dominant-baseline="central" class="axisComponent" x="16.83830516413761" y="595.7384033203125" fill="#4100e5" transform="matrix(1.05252, 0, 0, 1.1097, 0, 0) matrix(1, 0, 0, 1, -0.840265, -58.8943)">3</text><rect x="-4.212154921147269" y="615.7130858344871" width="10.525230042642438" height="4.438818565400844" class="axisComponent" fill="#0083e5"></rect><text dominant-baseline="central" class="axisComponent" x="16.83830516413761" y="617.9324951171875" fill="#0083e5" transform="matrix(1.05252, 0, 0, 1.1097, 0, 0) matrix(1, 0, 0, 1, -0.840265, -61.0884)">4</text><rect x="-4.212154921147269" y="637.9071776313621" width="10.525230042642438" height="4.438818565400844" class="axisComponent" fill="#009957"></rect><text dominant-baseline="central" class="axisComponent" x="16.83830516413761" y="640.1265869140625" fill="#009957" transform="matrix(1.05252, 0, 0, 1.1097, 0, 0) matrix(1, 0, 0, 1, -0.840265, -63.2825)">5</text><rect x="-4.212154921147269" y="660.1012694282371" width="10.525230042642438" height="4.438818565400844" class="axisComponent" fill="#2b9900"></rect><text dominant-baseline="central" class="axisComponent" x="16.83830516413761" y="662.3206787109375" fill="#2b9900" transform="matrix(1.05252, 0, 0, 1.1097, 0, 0) matrix(1, 0, 0, 1, -0.840265, -65.4766)">6</text><rect x="-4.212154921147269" y="682.2953612251121" width="10.525230042642438" height="4.438818565400844" class="axisComponent" fill="#998300"></rect><text dominant-baseline="central" class="axisComponent" x="16.83830516413761" y="684.5147705078125" fill="#998300" transform="matrix(1.05252, 0, 0, 1.1097, 0, 0) matrix(1, 0, 0, 1, -0.840265, -67.6707)">8</text></svg>