<svg xmlns:svg="http://www.w3.org/2000/svg" xmlns="http://www.w3.org/2000/svg" version="1.1" width="556.02374" height="263.19177" id="svg4259">
  <defs id="defs4261"/>
  <g transform="translate(-90.559554,-380.76629)" id="layer1">
    <path d="m 368.59129,642.95806 c -152.75253,0 -277.031736,-58.58681 -277.031736,-130.59588 0,-72.00907 124.279206,-130.59589 277.031736,-130.59589 152.7355,0 276.99201,58.58682 276.99201,130.59589 0,72.00907 -124.25651,130.59589 -276.99201,130.59589" id="path726" style="fill:#004489;fill-opacity:1;fill-rule:nonzero;stroke:none"/>
    <path d="m 354.45395,429.84744 c -12.605,0 -23.17253,4.44382 -31.64017,13.19523 -8.46765,8.75141 -12.6277,19.6311 -12.6277,32.63336 0,11.1975 3.00227,20.21566 9.08058,26.958 6.07265,6.74234 17.51419,13.85357 34.47786,21.42451 l 18.0193,8.0874 c 8.05334,3.54144 13.74574,7.20773 17.0261,11.20885 3.27469,4.01249 4.96595,9.11465 4.96595,15.3235 0,7.86039 -3.23496,14.90919 -9.50625,20.99886 -6.27695,6.08967 -13.31441,9.08059 -21.28262,9.08059 -10.26106,0 -20.24971,-4.563 -29.79569,-13.76276 -9.54596,-9.1941 -16.2883,-20.52782 -20.14755,-34.05221 -0.47674,-1.88423 -1.16912,-2.83769 -2.27015,-2.83769 -2.44609,0 -3.68899,1.8899 -3.68899,5.67537 0,2.99091 1.5437,9.85811 4.54029,20.5732 1.96369,7.01476 3.15551,12.33258 3.54711,16.03291 0.3916,3.39388 0.82293,5.43134 1.41884,6.10103 0.58456,0.67537 2.75824,1.27696 6.38479,1.98637 2.59932,0.55052 6.5437,1.73667 12.06016,3.54712 11.82179,3.70601 20.5278,5.67536 25.96482,5.67536 13.31441,0 24.97728,-5.1589 34.90351,-15.32349 9.92621,-10.17026 14.75595,-22.04313 14.75595,-35.75482 0,-12.45743 -3.46198,-23.23495 -10.64131,-32.06583 -6.07833,-7.3269 -18.47333,-14.76731 -37.17367,-22.4177 -15.70373,-6.37911 -25.09647,-10.92508 -28.09307,-13.76277 -4.65948,-4.39274 -6.95233,-9.70488 -6.95233,-15.74914 0,-6.51532 2.65608,-12.09989 7.94553,-16.88422 5.28376,-4.79002 11.48693,-7.2361 18.58682,-7.2361 10.34053,0 20,4.04653 29.22815,12.06016 9.2395,8.0193 15.0227,17.51986 17.30986,28.51872 0.62998,2.99091 1.70262,4.5403 3.12147,4.5403 1.96367,0 2.97956,-1.71964 2.97956,-5.10783 0,-0.62997 -0.13054,-1.46425 -0.28376,-2.41204 l -1.13508,-10.78319 -1.56072,-11.49262 c -0.16459,-1.33939 -0.28378,-2.75823 -0.28378,-4.25653 l 0.28378,-9.64812 c 0,-2.59933 -0.90239,-3.83088 -2.55393,-3.83088 -0.63564,0 -1.21452,0.1135 -1.84449,0.42565 l -4.5403,2.27015 c -1.18047,0.55051 -2.3042,0.8513 -3.40521,0.8513 -1.50397,0 -3.97276,-0.70941 -7.51986,-2.12826 l -7.94553,-3.40521 c -7.0942,-2.83769 -14.3076,-4.25653 -21.70827,-4.25653 z m 154.08624,1.7026 c -5.0454,0 -14.21113,0.53917 -27.52554,1.56073 -11.34506,0.86833 -20.98751,1.27696 -28.94438,1.27696 -7.25879,0 -13.9387,-0.35755 -20.00567,-0.99319 -1.96935,-0.23268 -3.38819,-0.28377 -4.25653,-0.28377 -2.20203,0 -3.40521,1.16346 -3.40521,3.40522 0,2.24745 1.73099,3.49035 4.96594,3.97276 8.74575,1.10102 15.01135,4.38138 18.8706,9.64813 2.36664,3.22361 3.54711,9.58002 3.54711,19.01247 l 0,85.27241 -0.14189,4.68218 0,11.20885 c 0,5.74348 -1.07265,9.9773 -3.12145,12.76958 -2.05448,2.79228 -5.70942,5.02271 -11.06697,6.66856 -1.57775,0.48241 -2.41203,1.4983 -2.41203,3.26334 0,2.16231 1.41884,3.26333 4.25653,3.26333 0.86832,0 2.47446,-0.0568 4.68217,-0.28377 l 7.94552,-0.70941 9.9319,-0.85132 c 4.09761,-0.30646 8.76276,-0.42565 14.04653,-0.42565 6.29965,0 12.79795,0.3008 19.58002,0.85132 2.36096,0.23836 3.95006,0.28376 4.82406,0.28376 2.6731,0 4.11465,-1.15778 4.11465,-3.40523 0,-2.24176 -1.65721,-3.51305 -4.96595,-3.83087 -8.11578,-0.78888 -13.55845,-3.77411 -16.31669,-9.08059 -2.7639,-5.31214 -4.25652,-15.4143 -4.25652,-30.36321 l 0,-23.97844 c 0,-3.14415 0.66402,-5.0454 1.8445,-5.67536 l 5.24971,-0.99319 7.37797,0 c 6.22022,0 10.7151,1.22588 13.479,3.5471 2.75824,2.33258 6.24859,7.84904 10.49944,16.60045 10.92508,22.13961 19.82974,37.16231 26.67423,45.11918 6.83315,7.96255 14.31327,11.91827 22.4177,11.91827 4.98865,0 10.7151,-1.48126 17.16798,-4.39841 6.44723,-2.91714 9.64813,-5.52213 9.64813,-7.80363 0,-1.81044 -0.70941,-2.6958 -2.12826,-2.6958 -0.78888,0 -1.6118,0.18729 -2.55392,0.42565 -1.58342,0.31783 -3.29171,0.42565 -5.10782,0.42565 -4.41544,0 -8.21794,-1.41883 -11.49263,-4.25652 -3.26901,-2.832 -7.03177,-7.86038 -11.20885,-15.1816 L 548.55154,539.80769 538.0521,521.22087 c -1.41884,-2.59933 -2.41203,-4.42679 -3.12145,-5.53349 -0.70943,-1.10103 -1.20318,-2.06016 -1.27696,-2.83769 -0.0737,-0.95346 0.6924,-1.78206 2.27015,-2.41202 7.63905,-3.30875 13.64358,-8.0874 18.0193,-14.47219 4.37002,-6.3848 6.52666,-13.47333 6.52666,-21.28264 0,-12.38365 -4.90919,-22.76957 -14.75595,-30.93075 -9.85811,-8.16686 -22.20771,-12.20205 -37.17366,-12.20205 z m -349.60266,0.56754 c -2.605,0 -3.97276,0.99319 -3.97276,2.83769 0,2.00907 1.13507,3.08172 3.26333,3.40522 9.05789,1.25993 15.00568,3.5244 17.87742,6.66855 2.87741,3.14984 4.25652,9.06356 4.25652,17.87742 l 0,93.64357 c 0,7.16231 -0.4143,12.86039 -1.27696,17.0261 -0.94779,4.96027 -2.21906,8.42792 -3.83088,10.35755 -1.61747,1.92962 -4.59137,3.66061 -9.08058,5.3916 -1.81044,0.72077 -2.77525,1.81611 -2.6958,3.26334 0.15323,1.76503 1.23155,2.6958 3.12145,2.6958 1.41885,0 3.71737,-0.18729 6.95232,-0.42565 11.74234,-0.70375 20.49376,-0.9932 26.24857,-0.9932 8.58684,0 15.38593,0.23837 20.43133,0.70942 l 13.76277,1.27696 c 6.14643,0.62997 11.69694,0.99319 16.74234,0.99319 8.58683,0 15.51645,-1.32804 20.71509,-3.97276 5.19864,-2.64471 9.58002,-7.03178 13.05335,-13.19523 4.1714,-7.27582 6.2429,-14.81838 6.2429,-22.55958 0,-1.03293 -0.32349,-1.87855 -0.99319,-2.55392 -0.66969,-0.6697 -1.48127,-1.00455 -2.27015,-0.85131 -0.3916,0.0795 -0.874,0.61861 -1.41884,1.56073 -9.85811,19.46083 -30.72644,29.22815 -62.71281,29.22815 -3.78548,0 -6.56072,-0.58457 -8.37118,-1.8445 -1.81043,-1.25993 -3.48467,-3.69467 -4.82406,-7.23609 -1.73666,-4.88083 -2.55391,-12.88876 -2.55391,-23.97844 l 0,-10.64131 c 0,-8.49603 0.23269,-14.6538 0.70943,-18.58683 0.47104,-3.46197 1.45856,-5.81157 2.83767,-6.95232 1.37912,-1.14075 3.87628,-1.70261 7.66175,-1.70261 l 8.0874,0 c 8.1101,0 13.64926,0.30078 16.60045,0.8513 2.95687,0.55051 5.47106,1.79342 7.51986,3.68898 3.70034,3.46765 6.06698,8.48468 7.09421,15.18162 0.47105,3.1555 1.71964,4.69352 3.68899,4.5403 0.94779,-0.0795 1.52668,-0.37458 1.8445,-0.85132 0.23836,-0.3916 0.28376,-1.16912 0.28376,-2.27015 l 0,-5.95912 c 0,-4.50058 -0.23836,-9.81271 -0.70941,-15.89104 -0.70942,-9.31895 -1.13507,-15.20431 -1.13507,-17.73552 0,-1.41884 0.12487,-3.19523 0.28376,-5.24972 0.23836,-2.83768 0.28377,-4.61975 0.28377,-5.24971 0,-2.20772 -0.82293,-3.20091 -2.55392,-3.12146 -1.6572,0.0795 -2.83767,0.70942 -3.5471,2.12827 l -2.6958,5.81725 c -4.25653,8.58683 -10.36323,12.91147 -18.16118,12.91147 l -10.07378,0 -5.10783,0.14187 -3.5471,0.14189 c -4.09762,0 -6.74234,-1.01021 -7.80364,-2.97956 -1.06696,-1.96937 -1.56072,-6.57775 -1.56072,-13.90465 l 0,-25.68105 0.14189,-4.82406 c 0,-6.69693 1.94097,-10.65834 5.95913,-11.91828 l 8.0874,-0.99319 14.47219,0 c 12.7639,0 21.958,1.73099 27.66741,5.24973 5.7151,3.5244 8.51305,9.19409 8.51305,17.0261 0,3.56412 0.77185,5.32917 2.27015,5.24971 3.07605,-0.15891 4.68218,-3.23496 4.68218,-9.22247 0,-2.99092 -0.3689,-7.90012 -0.99319,-14.75595 -0.47672,-4.64813 -0.70941,-7.83202 -0.70941,-9.64813 0,-2.59932 -1.12373,-3.97276 -3.40523,-3.97276 -0.47673,0 -1.07265,0.0624 -1.70261,0.14189 -5.98751,0.70941 -21.90692,0.99318 -47.67309,0.99318 l -44.69352,-0.42565 -11.91827,-0.42565 c -2.44609,0 -4.39841,-0.0625 -5.81725,-0.14188 -1.81044,-0.15892 -2.9966,-0.28378 -3.5471,-0.28378 z m 334.13728,8.37117 c 11.99773,0 21.87286,3.8706 29.6538,11.6345 7.78093,7.75823 11.6345,17.61067 11.6345,29.51192 0,9.14302 -2.89443,16.22019 -8.65493,21.42451 -2.92282,2.67877 -6.00454,4.31328 -9.36436,4.82406 -3.35414,0.51646 -12.04881,0.70942 -26.1067,0.70942 -4.89216,0 -8.05902,-0.64698 -9.36435,-1.98637 -1.30533,-1.33939 -1.98638,-4.46084 -1.98638,-9.50625 l 0,-41.00452 c 0,-5.98752 1.1067,-10.10217 3.12145,-12.34393 2.00909,-2.24745 5.6924,-3.26334 11.06697,-3.26334 z" id="path734" style="fill:#ffffff;fill-opacity:1;fill-rule:nonzero;stroke:none"/>
  </g>
</svg>